<svg width="110" height="43" fill="none" xmlns="http://www.w3.org/2000/svg"><path d="M77.642 9.3264l.0082.12998.2681-.02427c-.0081-.08121.0243-.2112.0812-.37383l-.0242-.23547c-.1139.00816-.2276.17875-.3333.50359zm-2.5671-6.1742l-.0243-.23568-.382.03244.0245.23568.3818-.03244zm-7.4498 13.949c-.0163-.2194-.6986-1.0723-2.0472-2.5753-.0245-.2761.4387-.6906 1.3892-1.2348l2.7134-2.3641c.6093-.7719.9666-2.02298 1.0723-3.7615l-.0324-.39811c-.1057-1.20249-.975-2.16907-2.6241-2.90835-.975-.65807-2.7298-1.02374-5.2644-1.08883-2.096.17875-4.834.92619-8.2053 2.25049-.9262.66624-1.9824 1.33225-3.1685 1.99849l.0163.20324c.073-.00816.1867-.04877.3169-.13814.1379-.01633.2194.04877.2273.17875l.2032-.10571.0974-.00816.0081.08937c.0082.10571-.7229.68235-2.2015 1.71425l.1137.21119-.0976.00816-.2436-.08937c.0082.07305-.0975.12182-.3006.13814l.0082.08938.2355.2924c-.0731.00817-.1867-.02427-.3412-.08121-.3412.03244-.6744.21119-1.0074.55232l.1381-.60109c.4957-2.13663.8369-4.02962 1.0156-5.67061l-.0245-.1057c-.3412-.21936-.6742-.52809-.9829-.91803.0082-.2518.0082-.39811 0-.43055l-.0245-.08937-.0973.02449c-1.0725 1.60854-3.1361 4.35447-6.1987 8.23776-2.3317 2.7623-3.5342 4.2976-3.6073 4.6063-.9504.9831-1.4055 1.5761-1.3567 1.7793-.2518.1625-.3575.3249-.3167.5036-.0732.0164-.122-.0081-.1381-.0812-.4063.6581-1.0074 1.0805-1.8118 1.2674l-.845.1949c-.1137.0244-.1706.1057-.1624.2438l.0245.1055.3167-.0731.0244.0894-.715.2763-1.2673.2924-.666.0406c-.0976.0976.5278-.0081.2842.0488l-.8287.1951c-.5036.1136-.7798.073-.8286-.13l-.0976.0243c.0164.0893.0245.1542.0082.2112l-.0488-.2031-.6662.1543c-.0485-.3087-.9505-1.4298-2.6971-3.3634-.0325-.3736.585-.918 1.8442-1.6247l3.5582-3.1279c.7962-1.0235 1.2674-2.6647 1.4219-4.92315l-.0488-.52809c-.1381-1.59221-1.2916-2.87591-3.4609-3.86698-1.2835-.86927-3.5907-1.33247-6.9217-1.40552-2.7622.23547-6.3693 1.2186-10.8052 2.93285-1.2186.88537-2.60774 1.7628-4.16751 2.63206l.02428.27629c.1057-.00817.24385-.06489.41443-.16243.17875-.01632.27629.06489.2924.22753l.27629-.15448.13815-.00816.00795.12998c.00816.12998-.95864.88559-2.91652 2.26661l.15448.24385-.13815.00816-.30056-.1057c.00816.08121-.12999.13814-.41444.16242l.01633.14631.32484.35755c-.10549.0081-.25179-.0245-.43849-.0894-.6338.0567-1.25126.5117-1.86056 1.3728l.15447.2439c.52809-.4875.83661-.7311.92598-.7393l.03266.3981c-.08937.008-.22752.0649-.41443.1624l.33322.5036c.62912-.6798 1.34152-1.2776 2.1203-1.7791.38178.0975.58502.2194.59297.3493l.29262-.0242c2.09599-1.55186 4.16759-2.67292 6.22299-3.36343l.0245.27607c-.382.5687-.642.86131-.7801.87743.0163.19508.0814.36566.2032.51197.0325.34934-.9019 2.70536-2.7947 7.05976C6.53987 26.0622 2.93284 33.5525 0 38.3944c.00816409.0976.0650979.2276.170587.39.723166-.1706 1.177993-.3491 1.373073-.5199l.15426-.0161.02449.276.26791-.0243.27629-.1542c.00816.0812.09754.1218.28445.1055l.02428.2763c.02428.2681-.12998.6742-.45504 1.2347-.2924.3332-.6093 1.0319-.94231 2.0962l.00817.1298.26812-.0243c1.16983-1.308 2.05542-2.5917 2.66472-3.8427 3.41216-.9992 6.0118-1.9824 7.8154-2.949 1.8116-.1544 3.1926-.6337 4.1351-1.4218l-.0163-.1461-.6824.203-.1544.0164-.0161-.1463c1.3322-.2031 2.2502-.4957 2.7622-.9018 2.5915-1.9986 4.5493-3.4121 5.8736-4.2489 2.7217-1.9985 4.4927-3.9484 5.297-5.8412.1461-.0327.2924-.0651.4549-.1057.3817-.0161.5932-.0243.6499-.0406-.0161-.0731.0163-.1137.0893-.13.6093-.0649.3169.0406.7069-.0488l1.0237-.2355.1706-.0408-.0812.0488c.1136.0163.2355.0082.3736-.0243l.0731.3006-4.6551 7.401-1.0317 1.2918-.5038 1.6898.0976-.0243.5036-.2112-.1625.6581.0488.1948.1382.1706c-.0651.0163-.0894.0569-.0733.13l.0245.1057.2112-.0488c.3087-.2681.4387-.5117.3899-.7311.333.0567.5524.0812.6663.0488l.0242.1055c-.203.0487-.3087.2112-.3248.4875l.0243.1054.1138-.0242c1.6898-1.8443 5.8331-8.1566 9.1558-12.438-.1057-.463 1.6249-1.105 5.1995-1.9336l.1137-.0243c.1299.5605-.1461 1.9173-.8287 4.0702-.4387 1.2998-.6499 2.0146-.6175 2.1285-.5687 1.7303-.8368 2.6647-.8041 2.8108l-1.2674 4.1514c-.8207 2.1287-1.4461 4.3627-1.8848 6.7187.073-.0162.1869-.008.3493.0326l.1788-.1545c.0161.0733.0648.0976.1381.0813l-.0733-.3006.5526-.0161c.1624-.0406.3006-.2439.4142-.6175-.0242-.5605.0894-.8611.3412-.9262.3412-1.3322.5526-1.9985.6256-2.023.3169-1.324.5524-2.0797.7069-2.2666.4793-1.7222.8286-2.6078 1.0562-2.6647l.0487.2112-.3493.9019c-.6095 2.7053-1.2268 4.842-1.8524 6.4099l.1787.7799.1137-.0243c1.5112-3.2497 3.6885-9.6841 6.5238-19.3029.0812-.845.4874-1.5031 1.2104-1.9661l-.1624-.1705-.0245-.0894c.325-.0733.5526-.203.6825-.3818-.0163-.0733-.3005-.1787-.8531-.3251l1.4137-6.0605c.3087-.2763.4875-.4224.5442-.4224l.0245.3085c-.0731.0082-.187.0488-.3169.1382l.2681.382c.4875-.5281 1.0156-.98316 1.5922-1.36494.2926.08121.4387.17875.455.27607l.2112-.01611c1.6086-1.17799 3.1847-2.02298 4.7365-2.53474l.0161.20303c-.2842.43055-.4793.64991-.5848.65807.0161.14631.0567.27629.13.38994.0243.26813-.6744 2.05538-2.1042 5.37008-3.2659 7.6772-6.0038 13.356-8.2298 17.0444.0081.0731.0569.1706.1463.3006.5444-.13.8937-.2681 1.0319-.3981l.0973-.0082.0163.2031.2275-.0161.2031-.1057c.0081.0569.0812.0812.2193.0732l.0164.2194c.0161.1948-.0976.5036-.3494.926-.2357.252-.4793.78-.7393 1.5842l.008.1057.2114-.0163c.8854-.9911 1.5598-1.9661 2.0228-2.9247 2.5916-.7635 4.5658-1.503 5.9305-2.2342 1.3894-.1218 2.4372-.4793 3.1522-1.0804l-.0081-.1057-.5281.1545-.1137.0081-.0081-.1057c1.0074-.1463 1.7142-.3736 2.096-.6742 1.966-1.5112 3.4527-2.5916 4.4602-3.2254 3.1358-2.2827 4.5983-4.4763 4.4195-6.5805zm-.5362.1381l.073.8205c-.0973.2033-.203.3088-.3005.3169l-.1219-1.3973c.2276.0812.3412.1624.3494.2599zM5.57307 10.6264l-.13793.008-.02449-.2518.56053-.0488.00816.13c-.08938.0082-.22752.0569-.40627.1626zM2.8353 38.0127c-.32484-.1463-.61746-.2031-.86926-.1788l-.03244-.3981c-.01633-.1542.07305-.26.26813-.3006.17853-.0161.28424.1139.30057.3739.47115-.5769.73111-.8693.77988-.8775l.30057.1219c-.09754.8123-.34934 1.2267-.74745 1.2592zm29.255-30.60357c-.1382.01633-.4145-.41422-.8124-1.26737l-.0245-.2518c.26-.02427.5281.39811.8124 1.26737l.0245.2518zm-.39-3.03017l-.1138.26813-3.9727-1.65753c2.6486.08938 4.0135.55258 4.0865 1.3894zM14.924 18.783l-.5606.0488-.0242-.252.5605-.0488.0243.252zm-.4551-8.6522l.1382-.0082.0326.3981c-.13.0082-.3005.2031-.5119.5769l-.0243-.2763c.2518-.3006.3818-.5281.3654-.6905zm-1.178 2.7784l.0488.528-.1379.0082-.0488-.5281.1379-.0081zm-.6172.9912l.2681-.0244c-.0245.4387-.1463.6744-.3657.6905l-.1381.0081c.1706-.2924.2518-.5199.2357-.6742zm-.4632 1.3811l.1545-.0164.0079.13-.2518.4226-.2681.0243-.008-.13c.2682-.0243.39-.1624.3655-.4305zm-.4548 1.2431l-.0813.666-.1381.0081-.0569-.658.2763-.0161zM7.19794 29.4825c-.17875.9098-.37362 1.3728-.57686 1.3892l-.00795-.13c-.04877-.4469.14609-.8693.58481-1.2592zm-.83682 1.8115l.00816.13c.01633.1788-.06488.2845-.24363.2924l-.00816-.1299c-.01633-.1543.06488-.2518.24363-.2925zm-.24363 3.7615l.42238-.0406.01633.1463c-.10571.008-.24385.0649-.41444.1625l-.26812.0242c-.01612-.1381.07326-.2436.24385-.2924zM18.141 31.3428c-2.3721 1.1698-3.7694 1.9661-4.1838 2.3803-2.5672.8937-3.8427 1.4461-3.8183 1.6655-2.28289.9019-3.78595 1.5679-4.5089 1.9823-.17058.0161-.41422-.0487-.73928-.1951-.0406-.4629.17059-.8368.61747-1.1373.3981-.0325.77988.0245 1.14555.1787.42238-.2193 1.16166-.463 2.20967-.7229l-.02427-.2763-.84499.073c.10549-.1461.91803-.5279 2.44535-1.1453l.4224-.0406.0082.13c-.723.0648-1.1211.276-1.21047.658.01611.1706.11365.2437.2924.2273.54437-.3411.81237-.5442.80437-.6011 1.0317-.1949 3.8833-1.6898 8.5547-4.4763l.0243.2518c.0081.1218-.39.463-1.1944 1.048zm-7.1652 2.356c.6823-.0569 1.2673-.333 1.7546-.8123.1951-.0164.3008.0567.3087.2273-.333.0326-.9747.3087-1.9091.845l-.1381.0081-.0161-.2681zm11.5605-8.8797l-3.5827 2.8434c-2.6647 1.7467-4.0945 2.6241-4.3059 2.6405-4.2406 2.3315-6.88107 3.5421-7.90459 3.6315l-.15447.0161c.12998-.4793 2.01481-4.3381 5.67056-11.6012 1.6086-.1381 4.1433-.8856 7.5961-2.2503l.845-.0732c1.7467-.1543 3.0546.1869 3.9157.9992l.0488.5281c-.6417 1.8606-1.3567 2.9492-2.1285 3.2659zm-7.003-3.9401l.5768-.0487.0082.1299-.5769.0488-.0081-.13zm8.0998-1.373l.4224-.0407c.3899.187.593.3494.6093.4957l.0082.13c-.3739.0324-.7232-.1627-1.0399-.585zm1.1454-6.5236c-.3737.4467-1.3974 1.2104-3.0708 2.2827-.5526.0488-2.608.845-6.1663 2.4048-.1779-.0813-.3739-.1149-.5687-.0975l-.0242-.2518c-.0406-.5118.1867-1.1535.6905-1.9334.276-1.4625.5768-2.2993.9098-2.5023l2.9653-6.66988c-.0324-.41443.6012-.73133 1.901-.95068l.4226-.04061.0324.38199c1.2755-.19507 2.0715-.30873 2.3803-.33322 2.3562-.20303 3.5827.27629 3.6803 1.42184l.2681-.02449-.057-.67418.2927-.02449c.6905.38177 1.0641.84498 1.1129 1.38918.0324.37383-.1706.83682-.6012 1.3894-.1787.01611-.2844-.11387-.3005-.37383l-.2927.02449-.0648.81233C27.0938 11 26.2246 11.9181 25.6885 11.9668c-.4874.6742-.788 1.0074-.91 1.0156zm1.8199 4.6714c-.2438-.1627-.4387-.2357-.585-.2275l-.0325-.3981.2682-.0245.5929.3495c.0245.1867-.0569.2843-.2436.3006zm1.8848 2.2339c.26.1057.4143.2194.4467.3251l-.13.0324.0082.0082c-.0243 0-.057.0082-.0812.0163l-.1951.1543-.0486-.5363zm.1786 1.1213l-.0243-.1057.3412-.0812.0245.1057-.3414.0812zm.8207.918c.3493-.0569.5199-.0812 1.1698-.2275l.0243.1055-1.2347.2845c.0161-.057.0324-.1137.0406-.1625zm1.2022.5118c-.5199.0488-.4062-.0163-1.2349.1706l-.0243-.1057 1.0399-.333.4956-.1137.0488.1949c-.2275.0488-.0651.0488-.3251.1869zm1.0968-.26c-.1218.0325-.2193-.0242-.2763-.1624l.3169-.0732c.1382-.0325.2276.0244.26.1626l-.3006.073zm2.9735-3.2009l-.0245-.1055.512-.1221.0487.1951-.5362.0325zm3.1765 19.4816c.0324-.1463.0406-.2518.0242-.325l.1139-.0243c.1381-.0324.2194.0163.2518.1463l.0245.1055-.4144.0975zm2.226-18.6448l-.2276-.0406c-.3654.1463-.6741.2518-.9262.3087l-.2111.0488c-.1219.0324-.2194-.0163-.2682-.1463l1.4868-.3412.4874-.2275.1627.1869c-.2357.0488-.4063.1218-.5038.2112zm1.1455-.3657l-.0245-.1055c.0733-.0163.1706-.073.2763-.1787l1.0562-.2439.0243.1057c-.5606.1382-1.0074.2763-1.3323.4224zm.1624-2.1366c-.073.0163-.1706.0812-.2924.1787-.0163-.073-.1624-.073-.4387-.0081-.0488-.2031.7311-.4873 2.3478-.8611l.2276-.0488.0487.1951c-1.1374.333-1.7712.5199-1.893.5442zm2.8435-3.0708c-.1136 1.2917-.5687 2.0228-1.3731 2.2097l-.0242-.1055-.7151.2761-.3166.0732c-.1627.0406-.3088.0325-.4387-.0081l-.0651-.2845c-.0243-.1055 1.0074-1.5355 3.1034-4.2814l.2436.0406c.0894.3738-.0485 1.0643-.4142 2.0799zm5.0289-4.3059l-.0976.00817-.0163-.20303.4226-.04061.0079.10549c-.073.01633-.1785.05693-.3166.12998zm-2.0718 20.806c-.2436-.1139-.463-.1627-.6499-.1463l-.0243-.3088c-.0081-.1054.0568-.1787.1949-.2193.1382-.0161.2194.0812.2357.2924.3493-.4467.5442-.6742.5848-.6742l.2194.0894c-.0813.6174-.268.9423-.5606.9668zM69.4773 7.50667c-.1055.00816-.3087-.3169-.6254-.97496l-.0163-.20303c.203-.01633.4144.30056.6256.95047l.0161.22752zm-.2924-2.32354l-.0975.21119-3.0059-1.25921c2.0066.0651 3.0465.41444 3.1034 1.04802zM56.4382 16.1264l-.4224.0407-.0163-.2033.4223-.0406.0164.2032zm-.3494-6.57248l.1137-.00816.0245.30873c-.1057.00817-.2357.15451-.39.43871l-.0163-.203c.1869-.23571.2763-.41446.2681-.53628zm-.8856 2.11238l.0327.3981-.1139.0081-.0324-.3981.1136-.0081zm-.4793.7554l.2112-.0161c-.0243.3411-.1136.5199-.2679.536l-.1139.0082c.1219-.2273.1788-.4061.1706-.5281zm-.3411 1.04l.0975-.0081.0082.1055-.187.325-.2112.0163-.0081-.1057c.2193-.0163.3169-.1299.3006-.333zm-.3412.9423l-.0731.52-.0975.0081-.0406-.5117.2112-.0164zm-3.4691 9.8545c-.1379.6826-.2843 1.0319-.4387 1.048l-.008-.0893c-.0245-.3412.1218-.6663.4467-.9587zm-.6418 1.3731l.0082.0894c.0163.1461-.0488.2273-.1951.2354l-.0079-.1054c-.0082-.1057.0567-.1788.1948-.2194zm-.1787 2.8596l.3251-.0243.0079.1055c-.073.0082-.1867.0488-.3167.122l-.2112.0161c-.0081-.1136.0567-.1867.1949-.2193zm9.1234-2.819c-1.7873.8856-2.8517 1.4867-3.1847 1.7955-1.9497.6823-2.9165 1.1047-2.9002 1.2753-1.7305.6907-2.8679 1.1861-3.404 1.503-.1299.0082-.3169-.0406-.5607-.1542-.0324-.3494.13-.6338.4714-.845.3087-.0243.6011.0163.8692.13.3249-.1624.8854-.3412 1.6816-.5444l-.0161-.2031-.6581.057c.0812-.1139.7067-.4063 1.8685-.8775l.3249-.0245.0081.0894c-.5523.0488-.8611.2114-.9261.5038.0081.13.0893.1949.2275.1788.4062-.2681.6011-.4226.6011-.4712.7801-.1381 2.941-1.2755 6.4913-3.404l.0161.2031c0 .0812-.3005.3411-.9098.788zm-5.4431 1.7873c.5281-.0488.9749-.2518 1.3486-.6093.1381-.0082.2193.0488.2275.1788-.2439.0242-.7232.2275-1.4461.6174l-.1137.008-.0163-.1949zm8.7903-6.7511l-2.7053 2.1773c-2.023 1.3241-3.1197 1.9903-3.2903 2.0066-3.2171 1.771-5.2158 2.689-6.0039 2.7541l-.1136.008c.0975-.3655 1.5355-3.2983 4.3139-8.8065 1.2104-.1055 3.1279-.6824 5.7599-1.7222l.6581-.0569c1.3243-.1137 2.3154.1463 2.9653.7717l.0326.3981c-.4956 1.3973-1.0318 2.2178-1.6167 2.4698zm-5.3133-2.9897l.4226-.0406.008.1057-.4224.0406-.0082-.1057zm6.1499-1.048l.3251-.0243c.3006.1461.455.276.463.3818l.0082.0893c-.2843.0243-.5524-.1218-.7963-.4468zm.8532-4.9477c-.2845.3414-1.0562.9262-2.3154 1.7387-.4224.0406-1.9824.6418-4.6795 1.8116-.13-.0488-.2763-.0649-.4306-.0569l-.0163-.2031c-.0324-.3899.1382-.8774.512-1.4704.2112-1.1212.4466-1.7466.6905-1.893l2.2666-5.06943c-.0245-.30056.4548-.5442 1.4298-.73111l.3251-.02428.0242.30852c.9587-.15426 1.5598-.24364 1.8037-.26791 1.7872-.15448 2.7214.20303 2.7946 1.08045l.2112-.01633-.0406-.48748.2112-.01611c.52.28424.7962.62541.8287 1.03168.0243.2924-.1218.64991-.4306 1.06434-.1381.01611-.2193-.08121-.2356-.29262l-.2112.01633-.0649.6093c-.9019 1.37305-1.56 2.07965-1.9742 2.11235-.3657.4954-.5932.7474-.6987.7554zm.9505 3.3797l-.0243-.3087.2112-.0161.4548.276c.0082.13-.0567.2033-.1949.2194-.195-.1218-.3411-.1787-.4468-.1706zM27.0451 34.8362l-.2112.0488-.1788.1542c.0327.13.1139.1788.252.1463.138-.0324.1949-.1136.1625-.2436l-.0245-.1057zm-.8042-1.6004l.0243.1055c.1381-.0324.1951-.1137.1626-.2436l-.0245-.1057c-.13.0324-.1869.1138-.1624.2438zm5.7518-10.8052l.1545-.0975c-.0327 0-.0569-.0082-.0814-.0161-.0567.0161-.0812.0567-.0731.1136zm-.0324-2.8028l.2436-.0567-.0488-.2115-.2436.057.0488.2112zm57.4131 8.2053l-.5526-.0649-.0975.2112.0082.1057 3.2903-.2763-.0163-.203-2.6321.2273zm3.0059-.2518l.0161.203h.0325l-.0162-.203h-.0324zm13.8027-1.8036l.016.2032.358.0649-.017-.203-.357-.0651zm-.504.0406c-2.469.5526-2.778.455-3.298.4956l.016.2031.228-.0161.122-.0082-.033-.0243.268-.1057c2.446-.2681 2.73-.1706 2.706-.4469l-.009-.0975zm-14.826-3.5907l-.2194-.073c-.1787.4791-.2681.7635-.2599.8447l.0079.0894c.1708-.0082.3251-.3006.4714-.8611zm-2.9735-1.6004l-.0081-.1057-.1137.0082-.2032.13.1138.1948c.1543-.0161.2273-.0893.2112-.2273zm6.4587 6.6778l-.0163-.203-.0649.0082.0161.203.0651-.0082zm13.4048-3.022l.154-.0163c.09-.0082.13-.0812.122-.2112l-.089-.1951c-.561.0488-.821.0733-1.276.3251l-.008-.1057-.674.0651c-.016-.2033-.073-.3088-.163-.3006l-.349.0325c-.406.0324-.601.0163-.804.1705-.008-.073-.033-.1057-.073-.1057l-.39.0327-.228.13c-.008-.0733-.032-.1057-.073-.1057l-.138.1218-.008-.1055-.544-.0406-.13.0082.016.203.276.073.26-.0161c.089.0567.187.0731.301.0649l.227-.1137.008.0894c-1.275.3167-1.267.26-2.145.4061-.097-.0649-.17-.0973-.219-.0894l-.016.0163c-.098-.0081-.155-.073-.163-.1787l.455-.057c.033 0 .057.0327.309.0815.366-.1788.382-.252.577-.2682l-.016-.2032c-1.252.2439-.748.0812-2.316.2194l-.073.0081-.016-.203c2.015-.2439 1.34-.1057 2.031-.3006.008.0731.032.1055.073.1055.074-.0755.171-.1242.276-.1381l.138-.008c.707-.0569.943.0812 2.34-.3087l.008.0894.228-.1139.211-.0161c-.016-.2033.292-.2357.398-.2439l-.016-.2193c-2.454.4956-3.096.3575-3.778.5526l-.008-.0894c-.642.1136-.666.0649-.829.073-.049.0082-.122.0488-.203.13-.008-.073-.032-.1057-.081-.1057-.025 0-.033.0082-.041.0082l-2.0796.3411c-.0079-.0567-.0324-.0893-.0812-.0812-1.0805.2276-.788.2682-2.2342.3981-.0649.0082-.1542.0407-.2679.1137-.0081-.0567-.0408-.0892-.1138-.0812l-.8856.0732-.593.1461c-.0082-.0567-.0406-.0893-.1137-.0812-.3332.0894-.6256.1463-.8613.1625h-.0161c-.1463.0163.0731-.0407-.0406-.0892l-.1787.1055c-.26.0245-.1219-.0163-1.0156-.0082-1.568.1951-1.3974.2194-1.568.2275l-.585-.0406c.0082.057-.0242.0976-.0894.0976-.666-.0894-1.0071-.1951-1.0153-.3169.0894-.6336.2436-.9587.463-.975l.1139-.0079-.0976.2112.1137-.0082c.2112-.1139.3087-.2194.3005-.3169l-.0161-.2194-.2114.0164-.0161-.2033c-.0163-.1542.0082-.2924.0649-.406l.4793-.772.0163.2033.2276-.0164-.0164-.203-.13-.1869c.1706-.1463.3006-.2275.4063-.2357l-.0082-.1055-.3087.0243-.0243-.3087c.6175-1.2835.9099-2.031.8936-2.2421l.2193.0893c.1382-.0081.2031-.0893.1951-.2357l-.2114.0164-.0079-.0894c-.0151-.1483.0131-.2979.0812-.4305.333-.3494.4875-.6987.4548-1.0644.0651-.0082.0975.0245.1057.0976.2845-.1625.5038-.5932.6662-1.308.5036-.9099 1.2186-2.7298 2.1528-5.4513 1.7875-4.80948 1.7142-5.32124 1.966-6.45863l-.2112.01611c.0164.14631-.0161.28446-.0812.41444-.1463-.05694-.2599-.08938-.3412-.08121l-.0081-.08938c-.0325-.41443.1381-.90987.5281-1.49489l.0975-.00816.1788.69867.2111-.01611c-.0081-.04877.0488-.32506.1625-.83682-.0082-.1057-.0894-.17059-.2518-.17875l-.2031.12998c-.0163-.14631-.0081-.52809.0162-1.13739l-.1057.00817c-.1786-.17875-.268-.325063-.2761-.44688L95.97.901703c-.0079-.081212-.0486-.203028-.13-.357502-.0079-.105488.252-.211192.7881-.316681l.2357.089376.2193-.129981c.0082.073047.0488.105488.13.097324l.2193-.129981c.0082.073262.0488.105704.13.09754l.1057-.008164-.0163-.23546991C97.4894.0242774 97.0588.0242774 96.3763 0l-.2194.146309-.0081-.1299808C90.6975.46299 87.6022.715003 86.863.78805c-.0976.008164-.4794 0-1.1535-.016328.0079.089375-.0733.138145-.2357.154473l-.2357-.105704-.796.203239c-.1869.01612-.5038.00795-.9425-.040816-.1219.097536-.2682.154476-.4469.170806-.0973.00794 1.1619-.0651 2.3317-.14631-.1218.09754-.3087.15425-.5687.17875-.1787.01611-.333-.00817-.463-.08121-.1787.08121-.7556.21119-1.7224.40605l-.2355-.08937-3.8021.58502c-.1463-.07305-.3169-.09754-.512-.08121-.203.01611-.5441.08937-1.0153.21935l-1.8361.76356.138.22752c.0893-.00816.2193-.05693.3738-.14631l.6499.05694-.0812.6093c-.6011.26812-.9505.66623-1.048 1.16982-.9017.39811-1.3486.68257-1.3486.85315l.0082.10549.1379-.00795.2438-.12998.2843.34117.0406.47116c.0163.14631-1.5029 3.3389-4.5414 9.57844-2.6321 6.0118-4.0133 9.3021-4.1433 9.8951-.9017.2518-1.4216.6174-1.5761 1.1049.0164.1543.2845.26.8044.3006l.0243.2355-.2355.3899.0406.4714c.0243.2436.6824.4305 1.9742.5605-.0081-.0812.0325-.13.1218-.1381.0243.2924-.0569.861-.2438 1.706l.1381-.0081c.5363-.7311.7881-1.235.7638-1.511l.1137-.0082c.1299-.0082.2681.1381.4305.4548-.1624.0651-.7311 1.3568-1.7061 3.8833l.1382.2276.1381-.0082c1.1943-3.022 1.9418-4.6956 2.2503-5.0125 1.5682-.1382 4.2814-.4143 8.1323-.8287l.2438-.1463c.008.0814.0568.122.1461.1139l.2521-.0245.2436-.1461c.0082.0812.0569.1218.1463.1136l2.9165-.2518c.7717-.0651 1.1374-.3005 1.1047-.6986-.0079-.1057.4469-.2276 1.365-.3575.0893-.0082.2193.0163.3981.073-.0082-.073.455-.1461 1.3812-.2273.0243-.4875.1785-.7474.4548-.7719l-.0243-.2355c-.2599.0243-.5525.0894-.8937.203-.6093-.0324-.9993-.0812-1.1617-.1381-.1626.0894-.2844.1381-.3738.1463l-2.0309.0649-.2439.1299c-.0081-.073-.0567-.1054-.1461-.0973l-.1138.008-.26.1302c-.0082-.0733-.2194-.1302-.6417-.1869l-.26.1542-.5036.0406-.0082-.13c2.616-.2842 3.9076-.6417 3.8752-1.0641.1706-.0163.2599.0649.2761.2355l.7637-.1949-.0242-.2357-6.2638.1706c.0081.0812-.0325.13-.1219.1382l-.7637-.0649c-.1949.0161-.3573.073-.4873.1706l-.2845-.1057c-.788.0651-1.373.1624-1.763.2844-.536-.0406-1.1292-.0326-1.7873.0243l-1.4053.1218-.6499-.073c-.0326-.4145.7718-2.4536 2.4291-6.1094.4793-1.2349.918-2.0066 1.3404-2.299.0894-.0082.2193.0243.3981.0973l.9992-.3412.5118.0813c.8613-.0731 1.8606-.3167 3.0061-.7393.2842-.0243.4954-.008.6499.0569l.7636-.1787 2.2747-.1951c.9668-.0812 2.0149-.2924 3.1522-.6418l-.0245-.2354c-.4223.0406-.6417-.0327-.6578-.2033-.0245-.3167-.3332-.4469-.9262-.3981l-.0245-.2355.6256-.1787 1.641-.1381-.0243-.2355c-.0651.0079-.3981 0-1.0155-.0245l-.0243-.2518.6336-.0569c.1706-.0162.2438-.0976.2275-.26-.8529.0243-1.2837-.0163-1.2917-.13-5.9469.2924-8.9285.3494-8.9446.1624-.0894.0082-.2114.0651-.3738.1627l-.1543-.2439c1.5759-3.34704 2.5021-5.037 2.7702-5.06128.0082.12998-.0569.34117-.195.62563l.0081.10549.252-.02428c.6254-1.49489 1.1535-2.26661 1.5922-2.29905 1.8685-.16264-.2599-.28446 3.7373-.91009.1624.07327.276.10571.3573.09754 1.5679-.31689 3.7533-.6499 6.5562-.99107l-.0164-.23569-1.4947.13815-.0163-.23569c.1788-.01611.3251-.07305.4469-.17059l.0082.12999c.0812-.00795.1948-.06489.3411-.16243.26-.02427.4549 0 .593.07305.5199-.13793.9425-.21936 1.2513-.2518l.9341-.08937c.2275-.1461.3332-.27608.3251-.39811l-.0082-.10549c-.2357.02428-.5036.00817-.8205-.04877-.0082-.12998.0567-.21935.2112-.25996l1.7385-.16242.7962-.20325c.0082.08938.0488.12182.1137.12182.0812-.00795.1951-.06488.3412-.16242.0408.00816.0893.00816.1299.01633-.1054.21935-.2273.53625-.3493.95047l-.2273.01633c-.0163-.15448-.0569-.29262-.13-.41444l-.1138.00817c-2.1122 5.8818-3.0547 8.61973-5.0044 13.13663-.3575 1.1538-.6581 1.7955-.918 1.9336.0081.13.0893.1949.2275.1788.0487.5687-.0812 1.1292-.3981 1.6816-.902 2.5998-1.5031 4.0214-1.8118 4.2814l.2032 1.2268c.008.1299-.0569.203-.1951.2193l-.2112.0163c-.0324-.3413-.1544-.5038-.3736-.4793l-.1138.008c-.2763.4305-.4875.9262-.6254 1.503l.2111-.0163c.2843-.1867.4143-.4061.39-.6581l.4224-.0406.2436.0894c-.1949.3087-.2842.5526-.2679.7393l.1136.1951-.2762.6499.0081.1057c.2439-.0245.5118.0567.7962.2273.1949-.0161.4063-.1055.6418-.26.2438-.0243 1.1537-.0324 2.7216-.0324l.7881-.2681c.9586-.0082 1.1129.0163 1.9415-.057l.3412-.0324.1788-.1218.0081.1057c.8693-.0733.9262-.0164 1.6086.0648l.0081.1057-.4793.0407.0163.203c.1461-.0163.2761-.057.3818-.1463.1218-.008.1949.0569.203.2032-.1948.0161-.4142.0649-.658.1461l-.2112-.073c-.333.0893-.26.1136-.4875.1299l-.333-.0648c.0082.0567-.0243.0973-.0812.0973.0081.13.0812.1951.203.1869l.3412-.0324 1.7793-.1545.6742-.1461c.0082.0567.0324.0894.0894.0812l.325-.1218.6093-.0488c.4712-.0406.463-.0732 1.4868-.2357-.0082-.0649.0161-.0893.0648-.0975l.0082.0894c1.6657-.2843 1.7707-.3006 2.0387-.39l.025.0488c.414-.0975.179-.0731.292-.1543.008.0731.033.1055.073.1055l.293-.0243-.016-.2193-.593-.0082-.009-.0163c-.024.0082-.04.0082-.065.0163h-.081v.0164c-.398.0812-.406.0242-.666.0487l-1.4868.0812-.0079-.1057.8287-.1136.301-.0245.17-.1218.008.1057c1.17-.0976 1.584.1948 6.995-.9587.293-.0245.268-.2681.455-.7719-.099.0068-.198-.0158-.284-.0649-.447.1706-.683.0894-1.544.2275-.073.0082-.13-.0569-.154-.1869l-.009-.0894.829.0243c.155-.0161.455-.0406.902-.2924 0 .0731-.171.1137-.073.1057zm-40.0032.6418l-.3818.0324c-.0163-.1543.1869-.7393.6093-1.7385l.2518-.0243c.0082.2355-.1463.8123-.4793 1.7304zm.4632-1.8524l-.0082-.1055c-.0081-.13.0731-.2194.2518-.26l.0082.1055c.0081.1545-.0733.2439-.2518.26zm5.0774 3.9239l.0082.1057-.6336.0569-.0082-.1057.6336-.0569zm-.7636-.0649c.0082.13-.1869.2763-.6093.4224l-.7801-.0567-.2518.0243-.0242-.2357 1.6654-.1543zm5.1344-23.63311l-.3818.03266-.0081-.12998c-.0082-.12998.0651-.21936.2275-.25996l.1381-.00817.26.10549c.0079.15448-.0651.24385-.2357.25996zm5.8088-1.13738l.1218-.00795.0163.23547-.3493.03244c-.0082-.12998.0567-.21914.2112-.25996zm-1.4625.51197l-.5766-.0651-.0082-.10548c.7556-.0651 1.0074-.14631 1.4704-.2763.0082.08938.0894.12182.2357.10571l.0161.23547-.2273.02449c-.1788.01611-.3332-.00816-.4632-.08143-.1382.08938-.2843.14631-.4469.16264zm.7232 2.10419l-.0082-.1057.9344-.08938.0081.1057-.9343.08938zm.9992-.81254l-.0081-.12998.455-.04061.0082.12998-.4551.04061zm.1057-1.59222l-.122.00795.1057-.25179 1.0398-.09754.0082.12998c-.2681.02449-.6175.09754-1.0317.2114zm.5281 2.24212l-.0163-.23547.455-.0406c.1543-.01633.2355.05672.2437.21935l-.6824.05672zM87.1066.861097l-.5848.162633-.1057.00795c-.2761.0245-.6336.01633-1.0562-.02427.7556-.048773 1.4788-.105707 1.7467-.146313zm-.6254 2.599833l.0081.10549-.8043.07326-.0082-.1057.8044-.07305zm1.3161.62541c-.0082-.09732-.1626-.16242-.4793-.19486l-.8044.22752-.6174.02428c-.1382-.09754-.2112-.16242-.2194-.21119l.715.0406 1.6085-.25996.8205.03244.0082.12998c-.4063.04061-.7474.11387-1.0317.21119zm8.2784-2.13663c.0975.00817.1624.00817.1869.00817.2843-.27629.6012-.49565.9668-.64991-.2926 1.2837-.7474 2.23417-1.3731 2.85164l-.455-.27629c.382-.9668.6095-1.60855.6744-1.93361zm-1.3973 2.3966l.1136-.00795c-.1543.2924-.2924.44666-.4061.45482l-.0244-.30873c.0732 0 .1787-.04877.3169-.13814zm-.9018 2.15295c.2194-.87742.4306-1.37285.6255-1.50283l.0081.10548c-.1136.81233-.2924 1.2431-.5281 1.27554l.0406.51176c-.1948.27629-.2842.48748-.2762.6499l-.1137.00817-.0649-.70684c.13-.01612.2355-.12998.3087-.34118zm-.3493 1.16983c.008.12182-.0732.40627-.2357.84499l-.1136.00816-.0245-.30873c.1545-.3575.2844-.53625.3736-.54442h.0002zM86.8711 26.6957l-.0081-.0893.2112-.0162.0244.3088c-.1138.0081-.195-.057-.2275-.2033zm9.367.2439c-.0081-.0733-.0406-.1057-.1136-.0976l-.5281.0488-.0082-.1057h.0488l1.251-.1055.0082.1055c-.3655.0163-.5848.0733-.6581.1545zm-.6254-.26c.0488.0243.0243.0488 0 .0649-.0245-.0082-.0569-.0324 0-.0649zm.0649-1.4624l-.6987.0569-.0081-.1057.6337-.0567.5524-.1382c.0082.0649.0406.0894.1139.0812.6581-.1136.593-.1463.9098-.1705.1055-.0082.1706.0569.1788.1869l-1.6818.1461zm2.4454-.2112c-.39-.0406-.4143-.0731-.6906-.0488l-.0081-.0894.6256-.0567.0082.0894c-.0651.0079.1706.0243.0649.1055zm.0487-.1137l-.0081-.0894.3411-.0326.0082.0894-.3412.0326zm.7556-.0651l-.0081-.0893c.0569-.008.1381-.0488.2436-.13.1706-.0161.26.0975.2763.2275l-.5118-.0082zm.9668-.1218l-.0081-.1057.414-.0324.008.1057-.4139.0324zm.5769-.0488c-.008-.1218.04-.1948.146-.2112l.138.1788c-.008-.0569.016-.0894.065-.0975l.106.195-.455-.0651zm7.994-.9423l.008-.0081v-.0082s-.008.0082-.008.0163zm.146-.1057c.065-.0406.098-.0812-.057-.1055-.073.0813.082.1055-.081.1137l.008.073c.016-.0161.057-.0406.09-.0648l-.09.073v.0082l-.17.2193.341-.1218h.04l-.016-.2032-.065.0081zm.593.4632l-.065.008.016.2032.48-.0406c-.008-.13-.325-.1706-.431-.1706z" fill="#F9DC3E"/></svg>