<svg width="72" height="100" fill="none" xmlns="http://www.w3.org/2000/svg"><path d="M64.6942 92.1912L35.6934 100 6.69225 92.1912 0 19.6891h71.3873l-6.6931 72.5021z" fill="#2062AF"/><path d="M35.6934 25.562v68.21l.0655.0179 23.4691-6.3196 5.4171-61.9083H35.6934z" fill="#3C9CD7"/><path d="M19.2343 9.03729V4.72198h6.2961V0H14.5123v13.3462h11.0181V9.03729h-6.2961zm17.622-4.31531h4.4017V0H30.2389v4.72198c1.4743 1.4742 2.2431 2.1798 4.3752 4.3119-1.2464 0-4.3752.00447-4.3752.00426v4.30806H41.258V9.03729l-4.4017-4.31531zm15.6176 0h4.4015V0H45.8559v4.72198c1.4742 1.4742 2.2435 2.1798 4.3756 4.3119-1.246 0-4.3756.00447-4.3756.00426v4.30806h11.0197V9.03729l-4.4017-4.31531z" fill="#000"/><path d="M35.6674 43.6903L14.9106 52.335l.6884 8.5588 20.0684-8.5805 21.3476-9.1272.8851-8.7554-22.2327 9.2596z" fill="#fff"/><path d="M14.9105 52.3348l.6884 8.5588 20.0684-8.5805v-8.6229l-20.7568 8.6446z" fill="url(#paint0_linear)"/><path d="M57.9001 34.4307l-22.2326 9.2594v8.6229l21.3475-9.1271.8851-8.7552z" fill="url(#paint1_linear)"/><path d="M14.9424 52.3348l.6885 8.5589 30.7926.0981-.6888 11.4117-10.1325 2.8526-9.7404-2.4593-.5902-7.0832h-9.0505l1.1806 13.6743 18.2989 5.4105 18.1996-5.3123 2.3612-27.1513h-41.319z" fill="url(#paint2_linear)"/><path opacity=".05" d="M35.6675 52.3348H14.9106l.6884 8.5589 20.0685.064v-8.6229zm0 22.8941l-.0984.0274-9.739-2.4593-.5902-7.0832h-9.0503L17.37 79.3881l18.2975 5.4105v-9.5697z" fill="#000"/><path d="M13.0411 34.4307h44.8591l-.8851 8.7553H14.1232l-1.0821-8.7553z" fill="url(#paint3_linear)"/><path opacity=".05" d="M35.6674 34.4307H13.0411l1.0821 8.7553h21.5442v-8.7553z" fill="#000"/><defs><linearGradient id="paint0_linear" x1="25.2889" y1="60.8938" x2="25.2889" y2="43.6904" gradientUnits="userSpaceOnUse"><stop offset=".387" stop-color="#D1D3D4" stop-opacity="0"/><stop offset="1" stop-color="#D1D3D4"/></linearGradient><linearGradient id="paint1_linear" x1="46.7836" y1="52.3132" x2="46.7836" y2="34.4309" gradientUnits="userSpaceOnUse"><stop offset=".387" stop-color="#D1D3D4" stop-opacity="0"/><stop offset="1" stop-color="#D1D3D4"/></linearGradient><linearGradient id="paint2_linear" x1="14.9424" y1="68.5668" x2="56.2611" y2="68.5668" gradientUnits="userSpaceOnUse"><stop stop-color="#E8E7E5"/><stop offset="1" stop-color="#fff"/></linearGradient><linearGradient id="paint3_linear" x1="13.0411" y1="38.8084" x2="57.9" y2="38.8084" gradientUnits="userSpaceOnUse"><stop stop-color="#E8E7E5"/><stop offset="1" stop-color="#fff"/></linearGradient></defs></svg>