<svg width="100" height="29" fill="none" xmlns="http://www.w3.org/2000/svg"><path d="M.650781 22.5838V11.4547H14.5461v-.651H.650781V.650781H15.4246V0H0v23.2346h15.5547v-.6508H.650781zM28.0834 6.5082l-5.7598 7.5822-5.6298-7.582h-.8461l6.0853 8.0703-6.6713 8.6557h.7811l6.2804-8.168 6.3131 8.168h.8135l-6.7035-8.6561 6.1178-8.07029h-.7809l.0002.00019zm3.3191 22.4537V18.5488h.0651c.3906 1.5186 1.1607 2.7389 2.3105 3.661 1.1498.9218 2.6141 1.383 4.393 1.383 1.1498 0 2.1695-.2332 3.059-.6996.8894-.4664 1.6324-1.101 2.2291-1.9037.5965-.8028 1.0521-1.7356 1.3668-2.7987.3144-1.0629.4719-2.1803.4719-3.3515 0-1.2584-.1629-2.4192-.4883-3.4821-.3254-1.0631-.7973-1.98513-1.4155-2.76599-.6183-.78105-1.3668-1.38867-2.2455-1.82226-.8785-.43399-1.8711-.65098-2.9775-.65098-.8461 0-1.6324.1248-2.3592.37422-.7267.24961-1.3721.60195-1.9361 1.05762-.5674.45916-1.0612 1.00235-1.4645 1.61074-.4121.61836-.7267 1.29625-.9437 2.03395h-.0651V6.5082h-.6507v22.4537h.6507zm6.7686-5.9877c-2.0391 0-3.6772-.6996-4.9137-2.0988-1.2365-1.3992-1.8549-3.4115-1.8549-6.0365 0-1.0848.152-2.1153.4557-3.0914.3037-.9762.743-1.83324 1.3178-2.57074.575-.7377 1.2855-1.32344 2.1314-1.75723.8461-.43398 1.8008-.65097 2.8637-.65097 1.0848 0 2.034.21699 2.8475.65097.8134.43379 1.4861 1.025 2.0175 1.77344.5315.74844.9328 1.60543 1.2041 2.57073.2711.9654.4067 1.9904.4067 3.0752 0 .9763-.1246 1.9472-.3742 2.9125-.2495.9654-.6346 1.8332-1.1553 2.6035-.5205.7699-1.1875 1.399-2.0012 1.8873-.8137.4881-1.7953.732-2.9451.732zm10.7062.2604V13.765c0-.9111.1301-1.8007.3907-2.6683.2601-.8678.6615-1.63264 1.2039-2.29416.5424-.66172 1.231-1.18242 2.0664-1.56211.8351-.37969 1.8277-.53691 2.9775-.47187v-.65079c-.998-.02148-1.8711.08672-2.6195.32539-.7486.23868-1.394.56407-1.9363.97637-.5424.41211-.9762.89473-1.3016 1.44805-.3251.55244-.5665 1.15012-.716 1.77342h-.0651V6.5082h-.6507v16.7266h.6507v-.0002zm7.452-8.233h13.9928c.0435-1.1498-.0703-2.2561-.3416-3.3192-.2711-1.0631-.7051-2.00681-1.3016-2.83103-.5967-.82442-1.3668-1.48614-2.3105-1.98516-.9438-.49902-2.0664-.74844-3.368-.74844-.933 0-1.8442.19532-2.7336.58594-.8895.39043-1.6705.95977-2.343 1.7082-.6724.74844-1.2148 1.66509-1.6269 2.74999-.4121 1.0846-.6184 2.3211-.6184 3.7096 0 1.2365.141 2.3918.4231 3.4656.282 1.0738.7158 2.0068 1.3015 2.7986.586.7918 1.3399 1.4047 2.2617 1.8385.9219.434 2.0338.6401 3.3356.6184 1.909 0 3.5144-.5371 4.816-1.6108 1.3018-1.074 2.0719-2.5871 2.3106-4.5396h-.6508c-.2821 1.8441-1.0035 3.2271-2.1641 4.149-1.1607.9221-2.6195 1.383-4.3769 1.383-1.1932 0-2.202-.206-3.0264-.6181-.8242-.4122-1.4969-.9764-2.0176-1.6922-.5205-.716-.9057-1.5567-1.1551-2.5221-.2496-.9652-.3851-2.0121-.4068-3.1402zm13.342-.6508H56.3295c.0648-1.1715.2818-2.2237.6506-3.1565.3689-.933.8515-1.73024 1.4482-2.39176.5965-.66172 1.2908-1.16602 2.0826-1.51328.7918-.34707 1.6434-.5207 2.5545-.5207 1.0848 0 2.0391.20078 2.8637.60214.8242.40137 1.5131.94922 2.0664 1.64336.5531.69414.9707 1.50234 1.2527 2.42424.2821.9221.4231 1.893.4231 2.9125zm14.1557-2.8961h.6507c0-1.86583-.5423-3.22169-1.6269-4.06779-1.085-.84609-2.5602-1.26914-4.4258-1.26914-1.0414 0-1.9199.13028-2.6359.39063-.7159.26016-1.3016.59648-1.7573 1.00859-.4554.41211-.7808.86778-.9761 1.3668-.1953.49902-.293.97637-.293 1.43181 0 .9112.1627 1.6379.4883 2.1803.3254.5424.8351.9654 1.5293 1.2691.4773.2168 1.0195.4121 1.6271.586.6074.1734 1.3125.3578 2.1153.5529.7158.1738 1.4209.3473 2.1152.5207.6941.1736 1.307.4068 1.8385.6996.5316.293.9654.6672 1.3017 1.1229.3362.4554.5043 1.0521.5043 1.7896 0 .716-.1679 1.3235-.5043 1.8223-.3334.4964-.7723.9131-1.2853 1.2205-.5207.3144-1.1012.5422-1.741.6832-.6401.141-1.2637.2115-1.8711.2115-1.9743 0-3.4875-.4392-4.5397-1.3178-1.0521-.8787-1.5781-2.2617-1.5781-4.1492h-.651c0 2.1045.5695 3.6448 1.7084 4.6211 1.1391.9762 2.8258 1.4643 5.0604 1.4643.7158 0 1.4371-.0815 2.164-.2442.7266-.1627 1.3776-.4283 1.9524-.7972.5699-.3637 1.0486-.8536 1.3992-1.4317.358-.5859.5371-1.3017.5371-2.1478 0-.8028-.1574-1.4535-.4719-1.9526-.3146-.4988-.7267-.9111-1.2367-1.2365-.5098-.3254-1.0846-.5803-1.7246-.7646-.6436-.1855-1.2891-.3645-1.9363-.5371-.7965-.209-1.5938-.4151-2.3918-.6182-.6832-.1736-1.3178-.3797-1.9035-.6184-.5641-.2386-1.0143-.5802-1.3506-1.025-.3364-.4447-.5043-1.0793-.5043-1.9037 0-.1517.0433-.42302.1301-.81345.0867-.39063.2929-.78652.6183-1.18789.3254-.40117.8242-.75918 1.4969-1.07383.6724-.31445 1.5945-.47187 2.766-.47187.8027 0 1.5348.08691 2.1965.26035.6617.17363 1.2312.45019 1.7084.82988.4773.37969.8461.8623 1.1064 1.44805.2604.58593.3907 1.30176.3907 2.14786zm15.0666 0h.6507c0-1.86583-.5421-3.22169-1.6269-4.06779-1.0848-.84609-2.56-1.26914-4.4258-1.26914-1.0412 0-1.9199.13028-2.6357.39063-.7161.26016-1.3018.59648-1.7573 1.00859-.4556.41211-.781.86778-.9763 1.3668-.1953.49902-.2928.97637-.2928 1.43181 0 .9112.1627 1.6379.4883 2.1803.3252.5424.8351.9654 1.5293 1.2691.4773.2168 1.0195.4121 1.6269.586.6074.1734 1.3125.3578 2.1153.5529.716.1738 1.4211.3473 2.1152.5207.6943.1736 1.307.4068 1.8387.6996.5314.293.9654.6672 1.3015 1.1229.3364.4554.5045 1.0521.5045 1.7896 0 .716-.1681 1.3235-.5045 1.8223-.3334.4964-.7722.9131-1.2851 1.2205-.5209.3144-1.1012.5422-1.7412.6832-.6399.141-1.2637.2115-1.8711.2115-1.9743 0-3.4873-.4392-4.5395-1.3178-1.0523-.8787-1.5783-2.2617-1.5783-4.1492h-.6508c0 2.1045.5693 3.6448 1.7084 4.6211 1.1389.9762 2.8256 1.4643 5.0602 1.4643.716 0 1.4373-.0815 2.164-.2442.7266-.1627 1.3776-.4283 1.9526-.7972.5699-.3637 1.0486-.8536 1.3992-1.4317.358-.5859.5369-1.3017.5369-2.1478 0-.8028-.1572-1.4535-.4719-1.9526-.3144-.4988-.7265-.9111-1.2365-1.2365-.5098-.3254-1.0848-.5803-1.7246-.7646-.6437-.1855-1.2891-.3645-1.9363-.5371-.7965-.209-1.5938-.4151-2.3918-.6182-.6834-.1736-1.318-.3797-1.9037-.6184-.5641-.2386-1.0143-.5802-1.3504-1.025-.3364-.4447-.5045-1.0793-.5045-1.9037 0-.1517.0433-.42302.1302-.81345.0868-.39063.293-.78652.6182-1.18789.3254-.40117.8244-.75918 1.4969-1.07383.6726-.31445 1.5945-.47187 2.7662-.47187.8027 0 1.5348.08691 2.1965.26035.6617.17363 1.231.45019 1.7084.82988.4773.37969.8461.8623 1.1064 1.44805.2604.58593.3907 1.30176.3907 2.14786h-.0002z" fill="#222"/></svg>