<svg width="59" height="89" fill="none" xmlns="http://www.w3.org/2000/svg"><path d="M14.5586 88.9906c8.0386 0 14.5587-6.6398 14.5587-14.8257V59.3392H14.5586C6.52013 59.3392 0 65.9789 0 74.1649c0 8.1859 6.52013 14.8257 14.5586 14.8257z" fill="#0ACF83"/><path d="M0 44.4953c0-8.186 6.52013-14.8257 14.5586-14.8257h14.5587v29.6696H14.5586C6.52013 59.321 0 52.6813 0 44.4953z" fill="#A259FF"/><path d="M0 14.8257C0 6.63973 6.52013 0 14.5586 0h14.5587v29.6696H14.5586C6.52013 29.6696 0 23.0117 0 14.8257z" fill="#F24E1E"/><path d="M29.1351 0h14.5587c8.0385 0 14.5586 6.63973 14.5586 14.8257 0 8.186-6.5201 14.8257-14.5586 14.8257H29.1351V0z" fill="#FF7262"/><path d="M58.2524 44.4953c0 8.186-6.5201 14.8257-14.5586 14.8257-8.0385 0-14.5587-6.6397-14.5587-14.8257s6.5202-14.8257 14.5587-14.8257c8.0385 0 14.5586 6.6397 14.5586 14.8257z" fill="#1ABCFE"/></svg>