<svg width="120" height="51" fill="none" xmlns="http://www.w3.org/2000/svg"><g clip-path="url(#clip0)"><path d="M71.7111 17.3249c-2.6236 0-4.5773 1.2793-4.5773 4.3585 0 2.3198 1.2877 3.9306 4.4358 3.9306 2.6686 0 4.4812-1.5619 4.4812-4.027 0-2.7933-1.6218-4.2621-4.3397-4.2621zm-5.2453 21.7416c-.6211.7565-1.2398 1.561-1.2398 2.5093 0 1.8934 2.4309 2.4632 5.7703 2.4632 2.7656 0 6.5335-.1927 6.5335-2.7467 0-1.5182-1.8127-1.6118-4.103-1.7542l-6.961-.4716zm14.1155-21.5987c.8569 1.0894 1.7644 2.6057 1.7644 4.784 0 5.257-4.1489 8.3352-10.1564 8.3352-1.5277 0-2.9105-.189-3.7678-.4255l-1.5746 2.5093 4.673.284c8.251.5223 13.1133.7597 13.1133 7.0563 0 5.4478-4.815 8.5246-13.1133 8.5246-8.6311 0-11.9218-2.1787-11.9218-5.9199 0-2.1313.954-3.2658 2.6232-4.8314-1.5741-.6607-2.0982-1.8441-2.0982-3.1239 0-1.0428.5241-1.9893 1.3838-2.8901.8578-.8985 1.8113-1.7993 2.9559-2.8412-2.3362-1.1369-4.1015-3.5997-4.1015-7.1052 0-5.4456 3.6248-9.1858 10.9195-9.1858 2.0513 0 3.2916.1872 4.3885.4735h9.3v4.0242l-4.388.3319zM93.359 8.86123c-2.7187 0-4.2923-1.56424-4.2923-4.26489 0-2.69692 1.5731-4.166652 4.2923-4.166652 2.7656 0 4.3397 1.469732 4.3397 4.166652 0 2.70065-1.5736 4.26489-4.3397 4.26489zM87.2062 37.3235v-3.7398l2.4328-.3305c.668-.0955.7627-.237.7627-.9488V18.3798c0-.5195-.1425-.8528-.6211-.9934l-2.5744-.9009.5241-3.8352h9.8723v19.6541c0 .7588.046.8533.7636.9492l2.4318.3306v3.7393H87.2062zm32.4498-1.8362c-2.051.994-5.055 1.8939-7.774 1.8939-5.675 0-7.82-2.271-7.82-7.6257V17.3482c0-.284 0-.4735-.383-.4735h-3.337v-4.2165c4.197-.4748 5.865-2.5586 6.39-7.72107h4.531v6.72717c0 .3305 0 .4735.382.4735h6.723v4.736h-7.105v11.3189c0 2.7942.668 3.8826 3.242 3.8826 1.337 0 2.718-.3305 3.862-.7569l1.289 4.1685" fill="#2F2707"/><path d="M48.9979 23.0586L27.1935 1.40456c-.2986-.29666-.6532-.531993-1.0434-.692551-.3902-.160559-.8084-.243198-1.2308-.243198-.4223 0-.8405.082639-1.2307.243198-.3903.160558-.7448.395891-1.0434.692551l-4.5277 4.49721 5.7436 5.70393c.6752-.2281 1.4011-.2638 2.0956-.1031.6945.1607 1.3298.5114 1.834 1.0123.5068.504.8607 1.1395 1.0212 1.8338.1605.6944.121 1.4195-.1137 2.0926l5.5345 5.4977c1.3392-.4581 2.8847-.1615 3.9539.9022.3555.3529.6375.7718.8299 1.2329.1924.4611.2914.9554.2914 1.4545 0 .4992-.099.9934-.2914 1.4545-.1924.4611-.4744.8801-.8299 1.2329-.6254.6217-1.4485 1.009-2.329 1.0959-.8806.0868-1.7642-.1321-2.5006-.6195-.7363-.4874-1.2799-1.2132-1.538-2.0538-.2582-.8406-.2151-1.7441.122-2.5567l-5.1619-5.1266-.0005 13.4916c.3742.1838.716.4265 1.0121.7188.3554.353.6374.772.8298 1.2332.1923.4612.2914.9555.2914 1.4547 0 .4992-.0991.9935-.2914 1.4547-.1924.4611-.4744.8802-.8298 1.2331-1.4953 1.4851-3.9188 1.4851-5.4117 0-.4461-.4426-.7751-.9879-.9577-1.5873-.1827-.5994-.2135-1.2343-.0895-1.8483.1239-.614.3987-1.1881.7999-1.6712.4012-.4832.9164-.8603 1.4998-1.098V18.7193c-.4693-.1904-.8953-.4725-1.2525-.8296-1.1325-1.1234-1.4049-2.7738-.8246-4.1551l-5.6615-5.6238L.94255 22.9581c-.298747.2967-.535727.6489-.697408 1.0366-.1616813.3876-.24489786.8031-.24489786 1.2227 0 .4196.08321656.8351.24489786 1.2227.161681.3877.398661.7399.697408 1.0366L22.7469 49.1313c.6032.5989 1.4212.9353 2.2742.9353.8529 0 1.6709-.3364 2.2741-.9353l21.7027-21.5536c.6031-.5994.9419-1.4121.9419-2.2595 0-.8474-.3388-1.6602-.9419-2.2596z" fill="#DE4C36"/></g><defs><clipPath id="clip0"><path fill="#fff" d="M0 0h120v50.2941H0z"/></clipPath></defs></svg>