<svg width="100" height="99" fill="none" xmlns="http://www.w3.org/2000/svg"><g clip-path="url(#clip0)"><path d="M50 0C22.3745 0 0 22.3729 0 49.9964c0 23.4962 16.1234 42.997 37.8766 48.4945-.2511-.6255-.3745-1.5021-.3745-2.3743V87.615h-6.251c-3.3745 0-6.5022-1.4977-7.8766-4.2507-1.6256-2.9998-1.8766-7.625-6-10.5014-1.2511-.9999-.2511-1.9999 1.1234-1.8765 2.6255.7489 4.7489 2.502 6.7489 5.1231 2 2.6253 2.8766 3.2508 6.6255 3.2508 1.749 0 4.4979-.1234 7-.5021 1.3745-3.5019 3.749-6.625 6.6256-8.1228-16.749-1.9999-24.749-10.2503-24.749-21.5006 0-4.8763 2.1234-9.5015 5.6256-13.5012-1.1234-3.8763-2.6256-11.8757.5021-14.9989 7.5021 0 12 4.8762 13.1234 6.123 3.7489-1.251 7.8766-1.9999 12.1234-1.9999 4.3745 0 8.3745.7489 12.1234 1.9999 1.1234-1.251 5.6255-6.123 13.1234-6.123 3 2.9998 1.6255 11.1226.3745 14.9989 3.5021 3.8763 5.5021 8.6249 5.5021 13.5012 0 11.2503-7.8766 19.5007-24.4979 21.2495 4.6256 2.3743 7.8766 9.1228 7.8766 14.1224v11.3865c0 .3744-.1234.7488-.1234 1.1233C86 90.368 100 71.8715 100 49.9964 100 22.3729 77.6255 0 50 0z" fill="#000"/></g><defs><clipPath id="clip0"><path fill="#fff" d="M0 0h100v98.4951H0z"/></clipPath></defs></svg>