<svg width="58" height="56" fill="none" xmlns="http://www.w3.org/2000/svg"><path d="M28.7633 0C12.8798 0 0 12.8365 0 28.6716c0 12.6681 8.24156 23.4153 19.6702 27.2066 1.4374.2653 1.9653-.622 1.9653-1.3794 0-.6836-.0268-2.9423-.039-5.3381-8.0022 1.7344-9.6908-3.3829-9.6908-3.3829-1.3083-3.314-3.19357-4.1951-3.19357-4.1951-2.60958-1.7796.19671-1.7431.19671-1.7431 2.88836.2024 4.40926 2.9547 4.40926 2.9547 2.5654 4.3833 6.7288 3.116 8.3702 2.3836.2581-1.8533 1.0036-3.118 1.8261-3.834-6.3886-.7252-13.1047-3.1836-13.1047-14.1697 0-3.1301 1.1236-5.688 2.9637-7.6958-.2987-.7223-1.2831-3.6384.2786-7.5877 0 0 2.4154-.7706 7.912 2.939 2.2942-.6355 4.7549-.9539 7.1993-.9647 2.4445.0108 4.907.3292 7.2057.9647 5.4901-3.7096 7.9021-2.939 7.9021-2.939 1.5655 3.9493.5806 6.8654.2819 7.5877 1.8442 2.0078 2.9602 4.5654 2.9602 7.6958 0 11.0122-6.7288 13.4371-13.1336 14.1468 1.0316.8898 1.9508 2.6348 1.9508 5.3095 0 3.8363-.0334 6.9239-.0334 7.8683 0 .763.5178 1.6571 1.9759 1.3755 11.4224-3.7955 19.6535-14.5389 19.6535-27.2027C57.5264 12.8365 44.6484 0 28.7633 0z" fill="#161614"/></svg>