<svg width="100" height="100" fill="none" xmlns="http://www.w3.org/2000/svg"><g clip-path="url(#clip0)"><path d="M21.0241 91.9682l-6.4474-72.3158h70.8465l-6.4543 72.3045L49.9565 100l-28.9324-8.0318z" fill="#E44D26"/><path d="M50 93.8521l23.4434-6.4994 5.5156-61.7875H50v68.2869z" fill="#F16529"/><path d="M49.9998 52.3861H38.2635l-.8105-9.0823h12.5468v-8.8693H27.76l.2123 2.3795 2.1799 24.4412h19.8476v-8.8691zM50 75.4205l-.0389.0104-9.8777-2.6672-.6315-7.0736H30.5486l1.2426 13.9259 18.1679 5.0436.0409-.0113v-9.2278z" fill="#EBEBEB"/><path d="M21.1682 0h4.5072v4.45312l4.1231.00001V0h4.5074v13.4852h-4.5072V8.96953h-4.1231v4.51567h-4.5072V0h-.0002zM40.2331 4.47187h-3.968V0h12.4453v4.47187h-3.9697v9.01333h-4.5074V4.47187h-.0002zM50.6858 0h4.6998l2.891 4.73828L61.1647 0h4.7016v13.4852h-4.4887V6.80117l-3.101 4.79473h-.0775L55.096 6.80117v6.68403h-4.4102V0zM68.1094 0h4.5086v9.02773h6.3384v4.45747h-10.847V0z" fill="#120D0E"/><path d="M49.9695 52.3861v8.8691H60.891L59.8615 72.758l-9.892 2.6699v9.2273l18.1824-5.0392.1334-1.4985 2.0842-23.3498.2164-2.3816H49.9695zM49.9695 34.4345V43.3038h21.4234l.1779-1.9935.4041-4.4963.2122-2.3795H49.9695z" fill="#fff"/></g><defs><clipPath id="clip0"><path fill="#fff" d="M0 0h100v100H0z"/></clipPath></defs></svg>