<svg width="78" height="78" fill="none" xmlns="http://www.w3.org/2000/svg"><g opacity=".78"><path d="M0 0h78v78H0V0z" fill="#F7DF1E"/><path d="M20.5091 65.1824l5.9688-3.6124c1.1517 2.0418 2.1993 3.7693 4.712 3.7693 2.4086 0 3.9274-.9421 3.9274-4.6068V35.8096h7.3299v25.0265c0 7.5919-4.4503 11.0476-10.9432 11.0476-5.8637 0-9.2673-3.0368-10.9952-6.7019l.0003.0006zm25.9195-.7855l5.9682-3.4554c1.5712 2.5657 3.6133 4.4505 7.2256 4.4505 3.0375 0 4.9741-1.5185 4.9741-3.6129 0-2.5131-1.9896-3.4034-5.3406-4.8689l-1.8321-.7861c-5.2884-2.2508-8.7963-5.0783-8.7963-11.0471 0-5.4978 4.1885-9.6866 10.7335-9.6866 4.6599 0 8.0109 1.6234 10.4191 5.8643l-5.7074 3.6654c-1.2568-2.2513-2.6176-3.1413-4.712-3.1413-2.1468 0-3.5082 1.3613-3.5082 3.1413 0 2.1989 1.3614 3.0895 4.5027 4.4509l1.8324.7851c6.2309 2.6706 9.7387 5.393 9.7387 11.5185 0 6.5977-5.1833 10.21-12.1469 10.21-6.8065 0-11.2046-3.2461-13.3511-7.4874" fill="#000"/></g></svg>