<svg width="100" height="80" fill="none" xmlns="http://www.w3.org/2000/svg"><path d="M0 .416666h79.1666V78.7499H0V.416666z" fill="#fff"/><path d="M79.9999 79.1666H0V0h79.9999v79.1666zM1.5025 77.6707h76.9941V1.49583H1.5025V77.6707z" fill="#24292E"/><path d="M53.5784 61.7283c1.5858 2.5899 3.6492 4.4933 7.2992 4.4933 3.0658 0 5.0241-1.5325 5.0241-3.6492 0-2.5366-2.0116-3.4358-5.3866-4.9116l-1.8492-.7934c-5.3392-2.2741-8.8858-5.1241-8.8858-11.1483 0-5.5491 4.2275-9.7733 10.8358-9.7733 4.7042 0 8.0866 1.6375 10.5233 5.9241l-5.7616 3.6992c-1.2684-2.275-2.6367-3.1708-4.7617-3.1708-2.1675 0-3.5408 1.375-3.5408 3.1708 0 2.2192 1.375 3.1183 4.5491 4.4933l1.85.7925c6.2867 2.6959 9.8358 5.4442 9.8358 11.6234 0 6.6608-5.2324 10.3108-12.2608 10.3108-6.8716 0-11.3108-3.2742-13.4833-7.5659 0-.0016 6.0125-3.4949 6.0125-3.4949zm26.6908 0c1.5858 2.5899 3.6492 4.4933 7.2992 4.4933 3.0658 0 5.0241-1.5325 5.0241-3.6492 0-2.5366-2.0116-3.4358-5.3866-4.9116l-1.8492-.7934c-5.3392-2.2741-8.8858-5.1241-8.8858-11.1483 0-5.5491 4.2275-9.7733 10.8358-9.7733 4.7042 0 8.0867 1.6375 10.5233 5.9241l-5.7616 3.6992c-1.2684-2.275-2.6367-3.1708-4.7617-3.1708-2.1675 0-3.5408 1.375-3.5408 3.1708 0 2.2192 1.375 3.1183 4.5491 4.4933l1.85.7925c6.2858 2.695 9.835 5.4434 9.835 11.6225 0 6.6608-5.2325 10.3108-12.2608 10.3108-6.8717 0-11.3108-3.2741-13.4833-7.5658l6.0133-3.4941zm-52.8274.6416c1.1625 2.0625 2.22 3.8059 4.7616 3.8059 2.4309 0 3.9642-.9509 3.9642-4.6492V36.3675h7.3983v25.2583c0 7.6608-4.4916 11.1483-11.0483 11.1483-5.9242 0-9.355-3.0659-11.1-6.7583l6.0242-3.6459s0-.0008 0 0z" fill="#24292E"/></svg>