<svg width="56" height="56" fill="none" xmlns="http://www.w3.org/2000/svg"><path d="M27.9999.00097656C12.5359.00097656 0 12.5369 0 28.0009c0 15.4641 12.5359 28 27.9999 28C43.464 56.0009 56 43.465 56 28.0009 55.9999 12.5369 43.4638.00097656 27.9999.00097656zM20.5295 41.5376h-6.1477V21.6762h6.1477v19.8614zm-3.1031-22.4624c-2.0078 0-3.6354-1.6409-3.6354-3.6647 0-2.0241 1.6278-3.6649 3.6354-3.6649 2.0075 0 3.6352 1.6408 3.6352 3.6649.0001 2.0239-1.6276 3.6647-3.6352 3.6647zm26.1415 22.4624H37.45V31.112c0-2.8594-1.0861-4.4556-3.3471-4.4556-2.4608 0-3.7463 1.6624-3.7463 4.4556v10.4256h-5.8964V21.6762h5.8964v2.675s1.7736-3.2808 5.985-3.2808c4.2116 0 7.2264 2.5715 7.2264 7.8913l-.0001 12.5759z" fill="url(#paint0_linear)"/><defs><linearGradient id="paint0_linear" x1="8.20098" y1="8.20196" x2="47.7989" y2="47.7999" gradientUnits="userSpaceOnUse"><stop stop-color="#2489BE"/><stop offset="1" stop-color="#0575B3"/></linearGradient></defs></svg>