<svg width="100" height="21" fill="none" xmlns="http://www.w3.org/2000/svg"><path d="M18.738 20.9177c-.5649 0-1.1209-.2197-1.5365-.6361L4.34505 7.42396V18.7454c0 1.2002-.97249 2.1725-2.17252 2.1725C.973278 20.9179 0 19.9454 0 18.7454V2.17874C0 1.29929.530132.507608 1.34175.171388c.39686-.16480307.83374-.2080086 1.25519-.124135.42146.083874.8085.291046 1.11203.595234L16.5655 13.5002V2.17874c0-1.200229.9725-2.17252965 2.1725-2.17252965 1.2002 0 2.1725.97249565 2.1725 2.17252965V18.7454c-.0003.5761-.2293 1.1285-.6366 1.5358-.4074.4074-.9598.6364-1.5359.6367v-.0002zM28.7984.0271263l-.597 1.1142137-4.617 8.39083-.5969 1.05953.5969 1.0583 4.6172 8.1201.6238 1.113h12.0851l.597-1.2217 3.449-6.9523 1.5478-3.15014h-3.503l-8.8255.02697c-1.1479-.01564-2.2038 1.02447-2.2038 2.17257 0 1.1478 1.0559 2.1889 2.2038 2.1725l5.3226-.027-1.3034 2.6339h-6.8437l-3.3952-5.9744 3.4222-6.19152h7.2795l1.6972 3.48281h4.3728l-2.7562-6.60496-.598-1.2227037H28.7984zM50.8075.00015058C49.669.0140294 48.6473 1.06217 48.6619 2.19965v5.66159h4.3451V2.19965c.0137-1.15605-1.0446-2.2141602-2.1995-2.19949942zM57.7717 20.9595c-.576-.0003-1.1283-.2294-1.5355-.6367-.4072-.4074-.6361-.9598-.6362-1.5358V2.22037c0-1.20003.9725-2.1723277 2.1725-2.1723277 1.2002 0 2.1725.9722977 2.1725 2.1725277V13.5418L72.8019.683928c.3036-.304053.6907-.511133 1.1121-.595.4214-.08386678.8583-.0407449 1.2551.123901.397.16458.7362.443138.9748.800471.2387.35732.366.77738.366 1.20707V18.787c0 1.1998-.9725 2.1723-2.1725 2.1723-1.2002 0-2.1725-.9725-2.1725-2.1725V7.46579L59.308 20.3235c-.2017.2018-.4412.3619-.7049.471-.2636.1092-.5462.1653-.8316.165h.0002zm34.831-10.4724l6.7582-6.7336c.8501-.84642.8521-2.22218.0053-3.072895-.8464-.849933-2.2212-.851692-3.0719-.005278L89.5257 7.42064 82.757.675327c-.8508-.847196-2.2255-.844459-3.0718.005278-.8474.850715-.8448 2.226475.0043 3.072895l6.7582 6.7338-6.7382 6.7146c-.8507.8474-.8525 2.2222-.0053 3.0719.2014.2031.4412.3643.7054.4741.2642.1098.5475.166.8336.1655.5546 0 1.1089-.2111 1.5329-.6343l6.7496-6.7252 6.7487 6.7252c.2013.2014.4404.3611.7036.47.2632.1088.5453.1647.8301.1643.5579 0 1.1142-.2129 1.5389-.6396.846-.8497.845-2.2245-.0052-3.0717l-6.7391-6.715zM50.8075 20.8978c-1.1385-.0137-2.1602-1.0619-2.1456-2.1993V9.60431h4.3451v9.09419c.0137 1.1548-1.0446 2.2131-2.1995 2.1993z" fill="#090"/></svg>