<svg width="100" height="62" fill="none" xmlns="http://www.w3.org/2000/svg"><path d="M49.4573 61.2341c-.339 0-.6554-.0904-.9494-.2486l-3.0062-1.7856c-.4522-.2488-.2261-.3391-.0903-.3843.6102-.2034.7232-.2488 1.3561-.6102.0679-.0454.1584-.0227.2261.0225l2.3056 1.3788c.0904.0452.2034.0452.2711 0l9.019-5.2215c.0904-.0452.1358-.1358.1358-.2486V43.7162c0-.1132-.0454-.2034-.1358-.2487l-9.019-5.1989c-.0904-.0453-.2034-.0453-.2711 0l-9.019 5.1989c-.0904.0451-.1357.1582-.1357.2485v10.4204c0 .0906.0453.2034.1357.2488l2.4639 1.424c1.3336.678 2.1699-.1131 2.1699-.9042V44.6202c0-.1355.113-.2713.2713-.2713h1.1527c.1357 0 .2713.1131.2713.2713V54.905c0 1.7856-.9721 2.8255-2.6673 2.8255-.5199 0-.9267 0-2.0796-.5652l-2.3733-1.3561c-.5877-.339-.9494-.972-.9494-1.6501V43.7387c0-.678.3617-1.3111.9494-1.6501l9.0188-5.2215c.5652-.3164 1.3339-.3164 1.8989 0l9.0188 5.2215c.5877.339.9496.9721.9496 1.6501v10.4204c0 .6781-.3619 1.3111-.9496 1.6501l-9.0188 5.2215c-.294.1357-.6329.2034-.9493.2034h-.0002zm2.7803-7.1654c-3.9556 0-4.7694-1.8083-4.7694-3.3453 0-.1358.1131-.2713.2713-.2713h1.1754c.1356 0 .2486.0904.2486.2261.1809 1.1979.7008 1.7856 3.0968 1.7856 1.8986 0 2.7126-.4295 2.7126-1.4467 0-.5877-.2263-1.017-3.1873-1.3109-2.4639-.2488-4.0009-.7911-4.0009-2.7577 0-1.831 1.5372-2.916 4.1139-2.916 2.8932 0 4.3174.9947 4.4983 3.1644 0 .0681-.0227.1358-.0678.2036-.0454.0452-.1131.0904-.1809.0904h-1.1755c-.113 0-.2261-.0904-.2485-.2034-.2713-1.2431-.9721-1.6501-2.8256-1.6501-2.0795 0-2.3283.7234-2.3283 1.2658 0 .6555.294.8589 3.0968 1.2206 2.7803.3618 4.0914.8816 4.0914 2.8255-.0226 1.9892-1.65 3.1194-4.5209 3.1194z" fill="#539E43"/><path d="M21.4738 20.4793c0-.4068-.2261-.7913-.5877-.9947l-9.5841-5.5153c-.1584-.0905-.3391-.1357-.5198-.1584h-.0906c-.1807 0-.3616.0679-.5198.1584L.58771 19.4846C.225892 19.688 0 20.0723 0 20.4793l.022687 14.8281c0 .2034.113044.4068.293757.4974.180909.113.406801.113.565218 0l5.696188-3.255c.36162-.2034.58771-.5877.58771-.9945v-6.9395c0-.4068.22589-.7911.58771-.9945l2.41853-1.4015c.1809-.1131.3843-.1584.5877-.1584.2034 0 .4068.0453.5652.1584l2.4185 1.4015c.3618.2034.5877.5875.5877.9945v6.9395c0 .4068.2261.7911.5877.9945l5.6962 3.255c.1809.113.4068.113.5877 0 .1809-.0906.294-.294.294-.4974l-.0227-14.8281zM67.5406.0679142c-.1807-.0905523-.4068-.0905523-.5652 0-.1807.1130438-.2937.2937568-.2937.4971568V15.2578c0 .1355-.0677.2711-.2034.3616-.1356.0677-.2713.0677-.4068 0l-2.3961-1.3788c-.1756-.1-.3743-.1526-.5764-.1526-.2022 0-.4008.0526-.5765.1526l-9.584 5.538c-.3617.2034-.5878.5877-.5878.9945v11.0532c0 .4068.2261.7913.5878.9947l9.584 5.538c.1757.1.3743.1526.5765.1526.2021 0 .4008-.0526.5764-.1526l9.5841-5.538c.3616-.2034.5877-.5877.5877-.9947V4.27224c0-.42949-.2261-.8136-.5877-1.0172L67.5408.0679142h-.0002zM66.6592 28.1872c0 .1131-.0452.2034-.1358.2486l-3.2774 1.8987c-.0458.0223-.0961.0339-.147.0339-.051 0-.1012-.0116-.147-.0339l-3.2775-1.8987c-.0905-.0452-.1357-.1582-.1357-.2486v-3.7975c0-.113.0452-.2034.1357-.2486l3.2775-1.8988c.0458-.0224.096-.034.147-.034.0509 0 .1012.0116.147.034l3.2774 1.8988c.0906.045.1358.1582.1358.2486v3.7975zm32.7756-3.8879c.3618-.2034.5652-.5877.5652-.9947v-2.6897c0-.4068-.2261-.7911-.5652-.9945l-9.5162-5.5153c-.1757-.1-.3743-.1526-.5764-.1526s-.4007.0526-.5764.1526l-9.584 5.5377c-.3618.2034-.5877.5878-.5877.9948v11.0532c0 .4068.2259.7911.5877.9945l9.5162 5.4249c.3618.2034.7911.2034 1.1302 0l5.7639-3.2094c.1809-.0906.2939-.294.2939-.4973 0-.2034-.113-.4069-.2939-.4974l-9.6293-5.538c-.1807-.1128-.2937-.2937-.2937-.4971v-3.4584c0-.2034.113-.4068.2937-.4974l3.0065-1.7179c.088-.0554.1898-.0848.2938-.0848.104 0 .2059.0294.2939.0848l3.0062 1.7179c.1809.1131.2939.2938.2939.4974v2.7124c0 .2034.1131.4068.2938.4972.1809.113.4068.113.5877 0l5.6962-3.3229z" fill="#333"/><path d="M89.1961 23.7794c.0336-.0221.0728-.0339.113-.0339.0401 0 .0794.0118.1129.0339l1.8311 1.0624c.0679.045.113.1128.113.2034v2.1247c0 .0904-.0451.1583-.113.2034l-1.8311 1.0624c-.0335.0221-.0728.0339-.1129.0339-.0402 0-.0794-.0118-.113-.0339l-1.831-1.0624c-.0679-.0451-.1131-.113-.1131-.2034v-2.1247c0-.0906.0452-.1584.1131-.2034l1.831-1.0624z" fill="#539E43"/><mask id="a" maskUnits="userSpaceOnUse" x="26" y="13" width="22" height="26"><path d="M37.4995 14.1503c-.1756-.1-.3743-.1526-.5764-.1526s-.4007.0526-.5763.1526l-9.5162 5.4923c-.3618.2034-.5652.5878-.5652.9946v11.0082c0 .4068.226.7911.5652.9945l9.5162 5.4928c.1756.1.3742.1525.5763.1525.2021 0 .4008-.0525.5764-.1525l9.5164-5.4928c.3616-.2034.5652-.5877.5652-.9945v-11.008c0-.4068-.2263-.7912-.5652-.9946l-9.5164-5.4925z" fill="#fff"/></mask><g mask="url(#a)"><path d="M37.4995 14.1503c-.1756-.1-.3743-.1526-.5764-.1526s-.4007.0526-.5763.1526l-9.5162 5.4923c-.3618.2034-.5652.5878-.5652.9946v11.0082c0 .4068.226.7911.5652.9945l9.5162 5.4928c.1756.1.3742.1525.5763.1525.2021 0 .4008-.0525.5764-.1525l9.5164-5.4928c.3616-.2034.5652-.5877.5652-.9945v-11.008c0-.4068-.2263-.7912-.5652-.9946l-9.5164-5.4925z" fill="url(#paint0_linear)"/><path d="M47.0388 19.6427l-9.5613-5.4925c-.094-.0475-.1925-.0854-.294-.1131L26.4693 32.3916c.0887.1084.1959.2002.3166.2713l9.5613 5.4928c.2713.1582.5877.2034.8815.1128L47.2876 19.869c-.0679-.0903-.1585-.1584-.2488-.2261v-.0002z" fill="url(#paint1_linear)"/><path fill-rule="evenodd" clip-rule="evenodd" d="M47.0601 32.6401c.2713-.1582.4747-.4295.5653-.7232L37.1368 14.0145c-.2712-.0452-.5652-.0227-.8135.1355l-9.4937 5.4703L37.069 38.2911c.1489-.0244.2935-.07.4295-.1355l9.5614-5.5153.0002-.0002z" fill="url(#paint2_linear)"/><path fill-rule="evenodd" clip-rule="evenodd" d="M47.0617 32.6401l-9.5388 5.4928c-.1346.0687-.2797.1145-.4294.1355l.1809.3392 10.5784-6.1255v-.1357l-.2713-.4522c-.0451.3164-.2485.5877-.5198.7459z" fill="url(#paint3_linear)"/><path fill-rule="evenodd" clip-rule="evenodd" d="M47.0617 32.6401l-9.5388 5.4928c-.1346.0687-.2797.1145-.4294.1355l.1809.3392 10.5784-6.1255v-.1357l-.2713-.4522c-.0451.3164-.2485.5877-.5198.7459z" fill="url(#paint4_linear)"/></g><defs><linearGradient id="paint0_linear" x1="40.8001" y1="18.2449" x2="30.3695" y2="34.6345" gradientUnits="userSpaceOnUse"><stop stop-color="#41873F"/><stop offset=".3288" stop-color="#418B3D"/><stop offset=".6352" stop-color="#419637"/><stop offset=".9319" stop-color="#3FA92D"/><stop offset="1" stop-color="#3FAE2A"/></linearGradient><linearGradient id="paint1_linear" x1="35.4788" y1="27.4308" x2="61.6019" y2="13.2381" gradientUnits="userSpaceOnUse"><stop offset=".1376" stop-color="#41873F"/><stop offset=".4032" stop-color="#54A044"/><stop offset=".7136" stop-color="#66B848"/><stop offset=".9081" stop-color="#6CC04A"/></linearGradient><linearGradient id="paint2_linear" x1="25.9169" y1="26.1418" x2="47.9371" y2="26.1418" gradientUnits="userSpaceOnUse"><stop offset=".09192" stop-color="#6CC04A"/><stop offset=".2864" stop-color="#66B848"/><stop offset=".5968" stop-color="#54A044"/><stop offset=".8624" stop-color="#41873F"/></linearGradient><linearGradient id="paint3_linear" x1="25.9187" y1="35.2693" x2="47.9386" y2="35.2693" gradientUnits="userSpaceOnUse"><stop offset=".09192" stop-color="#6CC04A"/><stop offset=".2864" stop-color="#66B848"/><stop offset=".5968" stop-color="#54A044"/><stop offset=".8624" stop-color="#41873F"/></linearGradient><linearGradient id="paint4_linear" x1="51.1466" y1="17.7244" x2="45.568" y2="46.9558" gradientUnits="userSpaceOnUse"><stop stop-color="#41873F"/><stop offset=".3288" stop-color="#418B3D"/><stop offset=".6352" stop-color="#419637"/><stop offset=".9319" stop-color="#3FA92D"/><stop offset="1" stop-color="#3FAE2A"/></linearGradient></defs></svg>