<svg width="100" height="62" fill="none" xmlns="http://www.w3.org/2000/svg"><path d="M83.6785 19.2002c-.1561-3.4342.3122-6.4781-1.2488-9.0538C78.6833 3.74637 69.3174 0 50.5855 0v.546347h-.3902.3902V0C31.8537 0 22.0194 3.74637 18.2731 10.2245c-1.483 2.6537-1.3269 5.6195-1.561 9.0537-.1561 2.7317-1.4049 5.6196-.8586 8.7415.6244 4.0586.8586 8.1172 1.483 11.8636.4683 3.0439 4.6829 5.6195 5.0732 8.5074 1.0927 7.961 9.3659 11.6293 28.0978 11.6293v.6244h-.4683.5463V60.02c18.7319 0 26.6929-3.6683 27.7076-11.6293.3902-2.9659 4.2927-5.4635 4.761-8.5074.6244-3.7464.8585-7.805 1.4829-11.8636.5464-3.1219-.7024-6.0878-.8585-8.8195z" fill="#EFCCA3"/><path d="M50.2733 22.0099c3.3561.078 5.6976 2.1854 7.883 4.1366 2.5756 2.2634 6.9464 3.8244 8.7415 5.7757 1.7952 1.9512 4.1366 3.9024 4.9952 6.9464.8585 3.0439 1.0927 6.9464 1.0927 7.961 0 1.0147.5463.7805 2.1073 0 3.6683-1.7951 7.7269-6.6342 7.7269-6.6342-.4683 3.0439-4.4488 5.7757-4.8391 8.6635-.9366 7.961-8.6635 11.7855-27.7856 11.7855h-.078.4683" fill="#CCAC8D"/><path d="M62.6042 15.922c.7024 2.4196 3.2 10.6148-1.6391 7.883 0 0 2.0293 1.1708 3.2781 5.6196 1.3269 4.4488 4.5269 4.9952 4.5269 4.9952s5.2293 1.0146 9.1318-2.3415c3.278-2.8098 3.8244-7.805 2.4195-11.6294-1.4049-3.7464-3.9025-4.9171-7.5708-5.6976-3.6683-.8585-11.005-1.561-10.1464 1.1707z" fill="#CCAC8D"/><path d="M71.8928 31.6881c3.7933 0 6.8683-3.0751 6.8683-6.8684 0-3.7933-3.075-6.8683-6.8683-6.8683-3.7933 0-6.8684 3.075-6.8684 6.8683 0 3.7933 3.0751 6.8684 6.8684 6.8684z" fill="#000"/><path d="M70.0976 23.571c.9914 0 1.7951-.8038 1.7951-1.7952s-.8037-1.7951-1.7951-1.7951c-.9915 0-1.7952.8037-1.7952 1.7951s.8037 1.7952 1.7952 1.7952z" fill="#fff"/><path d="M61.4336 24.5075s6.1659 4.2147 9.522 8.3513c3.3561 4.1366 3.2781 4.9171 3.2781 4.9171l-2.4195 1.0927s-3.4342-6.4781-7.6489-8.8976c-4.2927-2.4195-4.761-4.4488-4.761-4.4488l2.0293-1.0147z" fill="#EFCCA3"/><path d="M50.5067 22.0099c-3.3561.078-5.8537 2.1854-8.1171 4.1366-2.5757 2.2634-7.1025 3.8244-8.8977 5.7757-1.7951 1.9512-4.2146 3.9024-5.0732 6.9464-.8585 3.0439-1.1707 6.9464-1.1707 7.961 0 1.0147.1561 1.0927-2.1073 0-3.6684-1.7171-7.7269-6.6342-7.7269-6.6342.4683 3.0439 4.4488 5.7757 4.839 8.6635 1.0927 7.961 8.8196 11.7855 27.9417 11.7855h.3903" fill="#CCAC8D"/><path d="M68.6148 35.2003c-3.7464-4.6049-9.7562-8.8976-18.1075-8.8976h-.078c-8.3513 0-14.3611 4.2927-18.1075 8.8976-3.9025 4.7611-3.5903 6.6342-3.5903 11.1611 0 16.3904 5.7757 11.7074 9.6001 13.7367 3.9025 1.9512 7.9611 1.3268 12.0977 1.3268h.078c4.2147 0 8.1952.5464 12.0977-1.4048 3.8244-1.9513 9.6001 2.8878 9.6001-13.5026.078-4.5269.3122-6.5561-3.5903-11.3172z" fill="#56332B"/><path d="M50.1173 30.3612s-.5464 7.5708-1.6391 9.0538l2.0293-.4683-.3902-8.5855z" fill="#442823"/><path d="M50.6637 30.3612s.5463 7.5708 1.639 9.0538l-2.0293-.4683.3903-8.5855z" fill="#442823"/><path d="M44.1077 28.566c-.7805-1.7951 2.0293-4.6829 6.4781-4.761 4.4488 0 7.2586 2.8879 6.4781 4.761-.7805 1.8732-3.5902 2.4196-6.4781 2.4976-2.8098-.078-5.6976-.6244-6.4781-2.4976z" fill="#56332B"/><path d="M50.5846 30.3612c0-.3122 2.6536-.3903 4.0585-1.3268 0 0-2.8878.9365-3.5122.5463-.6244-.3122-.7805-1.2488-.7805-1.2488s-.2341.9366-.7024 1.2488c-.5464.3122-3.8245-.5463-3.8245-.5463s4.3708 1.0926 4.3708 1.3268c0 .2341-.078 1.0146-.078 1.561 0 1.9512 0 6.7903.3122 7.1805.4683.7025.3122-5.2293.3122-7.1805-.0781-.6244-.0781-1.2488-.1561-1.561z" fill="#000"/><path d="M50.7408 40.8199c1.3268 0 3.6683.9366 5.7757 2.4195-2.0293-2.2634-4.4489-3.8244-5.7757-3.8244-1.4049 0-4.3708 1.7171-6.4781 4.2146 2.1854-1.717 4.9952-2.8097 6.4781-2.8097z" fill="#7F4A41"/><path d="M50.1957 54.6346c-2.9659 0-5.8537-.9366-8.5074-1.639-.5463-.1561-1.0927.2341-1.639.078-4.9171-1.561-8.8977-4.2146-11.3172-7.5708v.7805c0 16.3904 5.7757 11.7855 9.6001 13.7367 3.9025 1.9513 7.961 1.3269 12.0977 1.3269h.078c4.2147 0 8.1952.5463 12.0977-1.4049 3.8244-1.9513 9.6001 2.8098 9.6001-13.5806 0-.6244 0-1.2488.078-1.7952-2.2634 3.6684-6.4001 6.5562-11.5513 8.2733-.4683.1561-1.561-.2342-2.0293-.1561-2.8098.9366-5.3074 1.9512-8.5074 1.9512z" fill="#442823"/><path d="M42.7809 45.815s-1.9513 5.8537-.6244 8.4294l-1.7952-.7805s1.3269-5.9318 2.4196-7.6489zM58.2341 45.815s1.9512 5.8537.6244 8.4294l1.7951-.7805s-1.4049-5.9318-2.4195-7.6489z" fill="#442823"/><path d="M37.7854 15.922c-.7025 2.4196-3.2001 10.6148 1.639 7.883 0 0-2.0293 1.1708-3.2781 5.6196-1.2488 4.4488-4.5268 4.9952-4.5268 4.9952s-5.2294 1.0146-9.1318-2.3415c-3.2781-2.8098-3.8244-7.805-2.4196-11.6294 1.4049-3.8244 3.9025-4.9171 7.5708-5.6976 3.6684-.8585 10.927-1.561 10.1465 1.1707z" fill="#CCAC8D"/><path d="M50.5075 39.415c2.1073 0 8.6634 4.5268 8.7415 10.0684v-.3122c0-5.7757-5.3074-10.3806-8.7415-10.3806-3.4342 0-8.7416 4.683-8.7416 10.3806v.3122c.0781-5.5416 6.6342-10.0684 8.7416-10.0684z" fill="#000"/><path d="M52.2114 28.6085c.3339-.0861.4737-.6634.3123-1.2895-.1615-.6261-.563-1.0638-.8969-.9777-.334.0861-.4738.6634-.3123 1.2895.1614.6261.563 1.0638.8969.9777zM48.1985 28.5969c.3293.1022.7516-.3156.9432-.9332.1916-.6175.0799-1.201-.2494-1.3032-.3294-.1021-.7517.3157-.9433.9332-.1916.6176-.0799 1.201.2495 1.3032z" fill="#331712"/><path d="M28.8882 31.6881c3.7933 0 6.8683-3.0751 6.8683-6.8684 0-3.7933-3.075-6.8683-6.8683-6.8683-3.7933 0-6.8684 3.075-6.8684 6.8683 0 3.7933 3.0751 6.8684 6.8684 6.8684z" fill="#000"/><path d="M30.6838 23.571c.9914 0 1.7951-.8038 1.7951-1.7952s-.8037-1.7951-1.7951-1.7951-1.7951.8037-1.7951 1.7951.8037 1.7952 1.7951 1.7952z" fill="#fff"/><path d="M52.5363 24.8978c0-.078-1.7951.7805-2.2634.8585-.4683-.078-2.2634-.9365-2.2634-.8585h4.5268z" fill="#7F4A41"/><path d="M38.8777 24.5075s-6.1659 4.2147-9.522 8.3513c-3.3561 4.1366-3.2781 4.9171-3.2781 4.9171l2.4195 1.0927s3.4342-6.4781 7.6489-8.8976c4.2147-2.4195 4.761-4.4488 4.761-4.4488l-2.0293-1.0147z" fill="#EFCCA3"/><path d="M25.3759 12.0197s-2.1073 5.7756-6.7903 8.1951c0 0 7.3367-.8585 6.7903-8.1951zM74.6238 12.0197s2.1073 5.7756 6.7903 8.1951c0 0-7.3367-.8585-6.7903-8.1951zM61.2781 22.7905s-4.6049-4.8391-10.7708-4.9952h.0781.078c-6.244.1561-10.7708 4.9952-10.7708 4.9952 5.3854-3.7464 9.9903-3.6683 10.7708-3.6683-.0781 0 5.2293-.0781 10.6147 3.6683zM55.893 12.6441s-2.3415-3.27812-5.4635-3.35617H50.5856c-2.3415.07805-5.3854 3.35617-5.3854 3.35617 2.6537-2.5757 5.3854-2.4976 5.3854-2.4976s2.5756-.0781 5.3074 2.4976zM28.8869 36.6051s-3.6683 1.7952-6.322.7025h-.0781c-2.3414-1.3269-3.5122-5.3074-3.5122-5.3074s2.3415 7.0245 9.9123 4.6049zM71.6585 36.6051s3.6683 1.7952 6.322.7025c3.122-1.3269 3.5903-5.3074 3.5903-5.3074s-2.3415 7.0245-9.9123 4.6049z" fill="#CCAC8D"/><path d="M33.1022 11.6293c2.0293-.3902 5.3854-.4682 8.0391.3903 3.3562 1.1707.6244 5.4635 1.3269 5.6976.7024.2342 1.639-2.9659 7.883-2.6537 6.322.3122 7.0244 3.122 7.883 2.6537.8585-.4683-.8586-7.80494 8.5854-6.0879 0 0-9.9123-2.65363-9.444 4.5269 0 0-5.6976-4.3708-13.6586-.4683.078 0 2.1073-6.71223-10.6148-4.0586zM67.6774 11.6293c.1561 0 .2342.0781.3122.0781.0781 0-.078-.0781-.3122-.0781zM30.3711 2.02933S21.9417 12.6441 20.6929 16.7026c-1.2488 4.1366-2.1853 21.0734-3.278 23.4929l-3.9025-16.7026 7.1805-17.405 9.6782-4.05857zM70.0195 2.02933s8.4294 10.61477 9.6782 14.67327c1.2488 4.1366 2.1853 21.0734 3.278 23.4929l3.9025-16.7026-7.1805-17.405-9.6782-4.05857z" fill="#CCAC8D"/><path d="M69.63 2.02928s9.0537 7.5708 11.7074 16.31232c2.6537 8.7415 1.561 19.3563 3.5903 20.6831 2.8878 1.8732 6.1659-9.2879 7.2586-10.4586 1.7171-1.8732 7.4147-6.6342 7.8049-7.4928.3898-.8585-11.5513-13.89276-16.7806-16.46839-6.322-2.96587-14.1269-3.20002-13.5806-2.57563z" fill="#56332B"/><path d="M77.3568 6.71225S88.0495 20.3709 87.8934 37.3857l4.2927-8.7416c-.078 0-3.8244-11.161-14.8293-21.93185z" fill="#442823"/><path d="M30.3706 2.02928s-9.0538 7.5708-11.7074 16.31232c-2.6537 8.7415-1.561 19.3563-3.5903 20.6831-2.8878 1.8732-6.16593-9.2879-7.25862-10.4586C6.0972 26.6929.399586 21.9319.00933905 21.0733-.380908 20.2148 11.5607 7.18054 16.79 4.60491c6.322-2.96587 14.1269-3.20002 13.5806-2.57563z" fill="#56332B"/><path d="M22.6436 6.71225S11.9508 20.3709 12.1069 37.3857l-4.21463-8.7416S11.6386 17.4831 22.6436 6.71225z" fill="#442823"/><path d="M16.8685 37.6979s.7805 4.2146 2.0293 5.5415c1.2487 1.3268.3902-1.0147.3902-1.0147s-1.3268-.7024-1.0927-6.0878c.2342-5.3854-1.3268 1.561-1.3268 1.561zM83.4446 37.6979s-.7805 4.2146-2.0293 5.5415c-1.2488 1.3268-.3902-1.0147-.3902-1.0147s1.3268-.7024 1.0927-6.0878c-.2342-5.3854 1.3268 1.561 1.3268 1.561z" fill="#CCAC8D"/><path d="M42.3906 35.1223c.3449 0 .6244-.2795.6244-.6244 0-.3448-.2795-.6244-.6244-.6244-.3448 0-.6244.2796-.6244.6244 0 .3449.2796.6244.6244.6244zM38.8002 38.8687c.3448 0 .6244-.2796.6244-.6244 0-.3449-.2796-.6244-.6244-.6244-.3449 0-.6244.2795-.6244.6244 0 .3448.2795.6244.6244.6244zM37.6296 35.1223c.3448 0 .6244-.2796.6244-.6244 0-.3448-.2796-.6244-.6244-.6244-.3449 0-.6244.2796-.6244.6244 0 .3448.2795.6244.6244.6244zM57.6101 35.1223c.3448 0 .6244-.2796.6244-.6244 0-.3448-.2796-.6244-.6244-.6244-.3449 0-.6244.2796-.6244.6244 0 .3448.2795.6244.6244.6244zM61.2009 38.8687c.3448 0 .6244-.2796.6244-.6244 0-.3449-.2796-.6244-.6244-.6244-.3449 0-.6244.2795-.6244.6244 0 .3448.2795.6244.6244.6244zM62.3711 35.1223c.3448 0 .6244-.2795.6244-.6244 0-.3448-.2796-.6244-.6244-.6244-.3448 0-.6244.2796-.6244.6244 0 .3449.2796.6244.6244.6244z" fill="#442823"/></svg>