<svg width="167" height="27" fill="none" xmlns="http://www.w3.org/2000/svg"><path d="M12.0853 3.21285c.2998-.92028 1.6017-.92027 1.9016 0l1.7511 5.3744c.1341.41163.5179.69021.9508.69021h5.6607c.9694 0 1.3718 1.24104.5868 1.80974l-4.5749 3.3147c-.3515.2546-.4985.7069-.3641 1.1196l1.7486 5.3666c.3.9208-.7533 1.6878-1.5375 1.1196l-4.5856-3.3224c-.35-.2536-.8234-.2536-1.1734 0l-4.58558 3.3224c-.78426.5682-1.83755-.1988-1.53752-1.1196l1.74857-5.3666c.13445-.4127-.01263-.865-.36409-1.1196l-4.57487-3.3147c-.78501-.5687-.38268-1.80974.58672-1.80974h5.66075c.43293 0 .81672-.27858.95082-.69021l1.7511-5.3744zM47.1823 3.21285c.2999-.92028 1.6018-.92027 1.9016 0l1.7511 5.3744c.1341.41163.5179.69021.9508.69021h5.6608c.9694 0 1.3717 1.24104.5867 1.80974l-4.5749 3.3147c-.3514.2546-.4985.7069-.3641 1.1196l1.7486 5.3666c.3.9208-.7532 1.6878-1.5375 1.1196l-4.5855-3.3224c-.3501-.2536-.8234-.2536-1.1735 0l-4.5855 3.3224c-.7843.5682-1.8376-.1988-1.5376-1.1196l1.7486-5.3666c.1345-.4127-.0126-.865-.3641-1.1196l-4.5748-3.3147c-.7851-.5687-.3827-1.80974.5867-1.80974h5.6607c.433 0 .8167-.27858.9508-.69021l1.7511-5.3744zM82.2794 3.21285c.2998-.92028 1.6017-.92027 1.9016 0l1.7511 5.3744c.1341.41163.5179.69021.9508.69021h5.6607c.9694 0 1.3718 1.24104.5868 1.80974l-4.5749 3.3147c-.3515.2546-.4986.7069-.3641 1.1196l1.7486 5.3666c.3.9208-.7533 1.6878-1.5376 1.1196l-4.5855-3.3224c-.35-.2536-.8234-.2536-1.1734 0l-4.5856 3.3224c-.7842.5682-1.8375-.1988-1.5375-1.1196l1.7486-5.3666c.1344-.4127-.0127-.865-.3641-1.1196L73.33 11.0872c-.785-.5687-.3827-1.80974.5867-1.80974h5.6608c.4329 0 .8167-.27858.9508-.69021l1.7511-5.3744z" fill="#120D0E"/><path d="M117.377 3.21285c.299-.92028 1.601-.92027 1.901 0l1.751 5.3744c.134.41163.518.69021.951.69021h5.661c.969 0 1.372 1.24104.587 1.80974l-4.575 3.3147c-.352.2546-.499.7069-.364 1.1196l1.748 5.3666c.3.9208-.753 1.6878-1.537 1.1196l-4.586-3.3224c-.35-.2536-.823-.2536-1.173 0l-4.586 3.3224c-.784.5682-1.837-.1988-1.537-1.1196l1.748-5.3666c.135-.4127-.012-.865-.364-1.1196l-4.575-3.3147c-.785-.5687-.383-1.80974.587-1.80974h5.661c.433 0 .816-.27858.95-.69021l1.752-5.3744zM152.474 3.21285c.3-.92028 1.601-.92027 1.901 0l1.751 5.3744c.135.41163.518.69021.951.69021h5.661c.969 0 1.372 1.24104.587 1.80974l-4.575 3.3147c-.352.2546-.499.7069-.364 1.1196l1.748 5.3666c.3.9208-.753 1.6878-1.537 1.1196l-4.586-3.3224c-.35-.2536-.823-.2536-1.173 0l-4.586 3.3224c-.784.5682-1.837-.1988-1.537-1.1196l1.748-5.3666c.135-.4127-.012-.865-.364-1.1196l-4.575-3.3147c-.785-.5687-.382-1.80974.587-1.80974h5.661c.433 0 .816-.27858.951-.69021l1.751-5.3744z" fill="#BEBEBE"/></svg>