<svg width="100" height="55" fill="none" xmlns="http://www.w3.org/2000/svg"><path d="M74.345 35.6311c-1.8852.6152-3.9122.8043-5.8813 1.1492-.536.0938-1.1016.0102-1.6426.0852-4.2005.5828-5.7877 2.2653-6.381 6.738-.3157 2.3809-.9422 4.6438-2.3087 6.6697-2.3086 3.4215-6.7935 4.9743-10.6318 3.6375-4.1087-1.4309-6.5978-5.1759-6.2658-9.4279.2993-3.8309 3.3251-7.2154 7.5744-8.199 1.9899-.4605 4.0544-.6406 6.0958-.8265 3.8107-.3465 5.4939-2.0173 6.1287-5.7642.3652-2.1559.0398-4.1899-.4383-6.2236-.7305-3.1082-2.9934-4.5524-6.7931-4.8289-2.0735-.1512-4.1829-.452-6.1669-1.0481-4.1767-1.2559-6.6084-4.8817-6.4158-9.13533.1688-3.72468 3.202-7.35131 6.8455-8.184133 4.3164-.987127 8.6134.739073 10.4494 4.583283.9633 2.01723 1.4922 4.30242 1.8695 6.52548.6755 3.986 2.2591 5.5325 6.2345 5.9646 2.5716.2797 5.1916.5984 7.6436 1.3656 3.7235 1.1653 5.9602 4.6353 5.9594 8.4916-.0004 3.7723-2.309 7.2638-5.8755 8.4275z" fill="#62DAFB"/><path d="M30.4974 36.2436c-4.9914.0008-9.0665-4.0731-9.0673-9.0638-.0008-4.9911 4.0731-9.0666 9.0638-9.0674 4.9911-.0008 9.0662 4.0731 9.067 9.0639.0008 4.9911-4.0731 9.0666-9.0635 9.0673zM9.03535 54.376c-4.9872-.0125-9.0478214-4.1004-9.03532122-9.0959C.012529 40.2929 4.1001 36.2323 9.0955 36.2452c4.9872.0121 9.0478 4.1001 9.0353 9.0955-.0125 4.9872-4.1001 9.0478-9.09545 9.0353zm81.96705 0c-5.0001.0285-9.1052-4.0157-9.1337-8.9974-.0285-4.9997 4.0157-9.1053 8.9974-9.1334 5.0001-.0289 9.1048 4.0149 9.1338 8.9971.0281 4.9997-4.0157 9.1052-8.9975 9.1337z" fill="#424242"/></svg>