<svg width="100" height="89" fill="none" xmlns="http://www.w3.org/2000/svg"><path d="M82.2204 28.8372c-1.0644-.3651-2.1378-.7033-3.2192-1.0144.1794-.7287.3452-1.4607.4975-2.1955 2.4367-11.8288.8435-21.3581-4.5974-24.49499-5.2165-3.00854-13.7482.12834-22.365 7.62669-.849.74056-1.6793 1.5025-2.4898 2.285-.5429-.5204-1.0953-1.0306-1.657-1.53043-9.0305-8.01836-18.0823-11.39689-23.5174-8.2507-5.2116 3.01695-6.7553 11.97573-4.5615 23.18583.2183 1.1102.4647 2.2146.7391 3.3122-1.2808.3638-2.5178.7515-3.7012 1.1639C6.76149 32.6158 0 38.401 0 44.4013c0 6.1976 7.25805 12.4139 18.2859 16.1827.8942.3042 1.7958.5861 2.704.8453-.295 1.1825-.557 2.373-.7855 3.5702-2.0916 11.0154-.4581 19.7617 4.7398 22.7601 5.3688 3.0957 14.3794-.0863 23.1537-7.7559.6935-.6063 1.3896-1.2494 2.0866-1.9234.878.8471 1.7794 1.6695 2.7032 2.4664 8.499 7.3134 16.8927 10.2666 22.0862 7.2603 5.3639-3.1051 7.1067-12.5011 4.8434-23.933-.1726-.8731-.374-1.7649-.5997-2.6731.6329-.1867 1.2538-.3797 1.8597-.5806C92.5415 56.8222 100 50.6817 100 44.4013c0-6.022-6.9792-11.8461-17.7796-15.5641z" fill="#53C1DE"/><path d="M79.7325 56.5656c-.5465.181-1.1077.3558-1.6795.5253-1.2657-4.0065-2.974-8.2671-5.0638-12.6684 1.9946-4.2972 3.6365-8.5029 4.8669-12.4838 1.0227.2965 2.0158.6086 2.9726.9383 9.254 3.1851 14.8984 7.8953 14.8984 11.5243 0 3.8658-6.0962 8.8844-15.9941 12.1643h-.0005zm-4.107 8.1383c1.0007 5.0549 1.1436 9.6253.4807 13.1981-.5957 3.2103-1.7933 5.3506-3.2741 6.2078-3.1515 1.8242-9.8913-.547-17.159-6.8013-.8334-.717-1.6729-1.4826-2.5147-2.2925 2.8178-3.082 5.6339-6.665 8.3822-10.6436 4.8345-.4289 9.4018-1.1303 13.5437-2.0876.2036.8232.385 1.63.5412 2.4191zM34.0911 83.7947c-3.0789 1.0874-5.5311 1.1184-7.0133.2638-3.1546-1.819-4.4654-8.8424-2.677-18.2624.2126-1.1132.4561-2.2204.7302-3.3201 4.0959.9059 8.63 1.5578 13.476 1.9508 2.7665 3.8933 5.6639 7.4718 8.5839 10.6056-.6205.6003-1.2558 1.1853-1.9052 1.7543-3.8799 3.3918-7.7678 5.7976-11.1941 7.008h-.0005zm-14.4244-27.253c-4.8762-1.6667-8.903-3.8326-11.66329-6.1959-2.48012-2.1243-3.73257-4.2331-3.73257-5.9445 0-3.641 5.42891-8.2857 14.48326-11.4425 1.1365-.3945 2.2842-.7556 3.4418-1.0829 1.2516 4.0702 2.8931 8.3259 4.874 12.6294-2.0066 4.3677-3.6715 8.6911-4.9346 12.8091-.8291-.2373-1.6522-.495-2.4686-.7727zm4.8354-32.9134c-1.8795-9.605-.6315-16.85016 2.5093-18.6682 3.3458-1.93666 10.7432.82493 18.5403 7.7479.4983.4426.9989.906 1.5003 1.3853-2.905 3.1196-5.7759 6.6712-8.5185 10.5418-4.7031.4359-9.2052 1.1361-13.3441 2.0739-.2549-1.0211-.4841-2.0485-.6873-3.0812v.0005zm43.1352 10.6511c-.9776-1.6886-1.9914-3.356-3.0408-5.0009 3.1908.4027 6.2476.9382 9.1181 1.5937-.8617 2.762-1.9358 5.6502-3.2006 8.6109-.9242-1.7535-1.8833-3.4884-2.8767-5.2037zM50.0468 17.1461c1.9703 2.1344 3.9437 4.5181 5.8847 7.104-3.9374-.1861-7.8815-.187-11.819-.0027 1.9428-2.562 3.933-4.9421 5.9343-7.1013zM32.3434 34.3087c-.981 1.7015-1.9221 3.4258-2.8226 5.1713-1.2441-2.9506-2.3084-5.8516-3.1776-8.653 2.8532-.6386 5.8958-1.1604 9.0659-1.5565-1.0612 1.6552-2.0834 3.335-3.0657 5.0382zm3.1568 25.5283c-3.2749-.3656-6.3636-.8608-9.2159-1.4817.8829-2.851 1.9707-5.8144 3.2413-8.8282.9044 1.7468 1.8496 3.472 2.8351 5.1744 1.0055 1.7365 2.0524 3.4489 3.1395 5.1355zM50.165 71.9584c-2.0248-2.185-4.0442-4.6014-6.0167-7.2005 1.9146.0752 3.8667.1133 5.8507.1133 2.0384 0 4.0534-.0456 6.0365-.1341-1.9472 2.6465-3.9135 5.0664-5.8705 7.2213zm20.3897-22.5849c1.3365 3.0466 2.4633 5.9941 3.3581 8.7968-2.8996.6616-6.0299 1.1945-9.3283 1.5901 1.057-1.6756 2.0806-3.3722 3.0701-5.0885 1.0059-1.7444 1.9728-3.511 2.9001-5.2984zm-6.6008 3.1643c-1.5148 2.6315-3.1148 5.213-4.7974 7.7404-2.967.212-6.033.3213-9.1575.3213-3.1117 0-6.1388-.0969-9.0539-.2859-1.7263-2.5215-3.3565-5.1075-4.8872-7.7523-1.5236-2.6308-2.9467-5.3185-4.2663-8.0573 1.3162-2.7397 2.735-5.4288 4.2534-8.0618v.0009c1.5179-2.6335 3.1353-5.2084 4.8487-7.7191 2.974-.2249 6.0233-.3426 9.1057-.3426 3.0962 0 6.1494.1186 9.1226.3452 1.696 2.5069 3.3031 5.0728 4.8181 7.6931 1.5237 2.6271 2.9614 5.303 4.311 8.0236-1.3357 2.7484-2.7689 5.4482-4.2968 8.0945h-.0004zm8.8127-47.70472c3.3484 1.93134 4.6509 9.71912 2.5469 19.93212-.1379.6653-.2878 1.3281-.4496 1.988-4.1486-.9572-8.6539-1.6698-13.3707-2.1123-2.7479-3.9127-5.5949-7.4705-8.4529-10.5498.7489-.7221 1.5157-1.4254 2.2995-2.1093 7.3829-6.42513 14.2828-8.9619 17.4268-7.14872z" fill="#fff"/><path d="M50.0005 35.4718c4.932 0 8.9296 3.9981 8.9296 8.9296 0 4.932-3.9976 8.9301-8.9296 8.9301-4.9314 0-8.9295-3.9981-8.9295-8.9301 0-4.9315 3.9981-8.9296 8.9295-8.9296z" fill="#53C1DE"/></svg>