<svg width="100" height="95" fill="none" xmlns="http://www.w3.org/2000/svg"><path d="M69.2894 66.3019c3.6903-.3821 6.4899-3.5633 6.3625-7.3813-.1269-3.8175-3.3086-6.8718-7.1261-6.8718h-.2543c-3.9453.1273-6.9992 3.4359-6.8719 7.3808.1273 1.909.8906 3.5633 2.0359 4.7086-4.3265 8.5266-10.9437 14.7621-20.8695 19.9797-6.7445 3.5632-13.7434 4.8359-20.7422 3.9453-5.7265-.7637-10.1804-3.3086-12.98045-7.5086-4.07187-6.2355-4.45351-12.9805-1.01757-19.725 2.41792-4.8359 6.23512-8.3992 8.65312-10.1808-.509-1.6543-1.2727-4.4539-1.6543-6.4899C-3.62735 57.521-1.71836 75.5917 3.88085 84.1179 8.08007 90.4811 16.6062 94.4261 26.023 94.4261c2.545 0 5.0899-.2547 7.6352-.8907 16.2887-3.1816 28.6324-12.8535 35.6312-27.2335zm22.3969-15.7801c-9.6715-11.3261-23.9238-17.5617-40.2125-17.5617h-2.0359c-1.1453-2.2906-3.5633-3.8179-6.2356-3.8179h-.2547c-3.9445.1273-6.9984 3.4359-6.8714 7.3812.1273 3.8176 3.3086 6.8719 7.1261 6.8719h.2543c2.7996-.1274 5.2176-1.909 6.2356-4.327h2.2906c9.6715 0 18.8336 2.7996 27.1055 8.2719 6.3625 4.1996 10.9437 9.6718 13.4886 16.289 2.1633 5.3449 2.036 10.5625-.2547 15.0168-3.5628 6.7445-9.5437 10.4351-17.4335 10.4351-5.0903 0-9.9258-1.5273-12.4711-2.6726-1.3996 1.2726-3.945 3.3086-5.7266 4.5816 5.4723 2.5449 11.0715 3.9449 16.416 3.9449 12.2164 0 21.2516-6.7449 24.6875-13.4894 3.6905-7.3812 3.4355-20.107-6.1082-30.9238zM27.041 68.4648c.1273 3.8179 3.3086 6.8718 7.1262 6.8718h.2547c3.9449-.1269 6.9988-3.4359 6.8714-7.3808-.1269-3.818-3.3085-6.8719-7.1261-6.8719h-.2543c-.2547 0-.6367 0-.8906.127-5.2176-8.6535-7.3809-18.0703-6.6172-28.2512.5086-7.6355 3.0539-14.2531 7.5078-19.7253 3.6902-4.70863 10.8164-6.99925 15.6523-7.1262 13.4887-.25469 19.2149 16.5433 19.5969 23.2882 1.6543.3817 4.4539 1.2727 6.3629 1.909C73.9976 10.6898 61.2723 0 49.0562 0 37.6031 0 27.041 8.27186 22.8414 20.4886c-5.8535 16.2891-2.0359 31.9418 5.0902 44.2859-.6359.8907-1.0179 2.2906-.8906 3.6906v-.0003z" fill="#764ABC"/></svg>