<svg width="100" height="61" fill="none" xmlns="http://www.w3.org/2000/svg"><path d="M53.6008 21.9651c-.0005-.7258.1903-1.4389.5532-2.0675.3629-.6285.8851-1.1503 1.5139-1.5128.6288-.3625 1.342-.5528 2.0678-.5519.7258.001 1.4386.1933 2.0664.5574 3.7422-1.3738 7.9098-2.0926 12.2433-2.0926 11.6042 0 21.5572 5.1829 24.9217 12.6417-.0287 1.7659-2.5373 2.5883-3.5382 1.5046-2.7588-5.991-11.4735-10.3037-21.3835-10.3037-3.6019 0-7.0588.5498-10.1889 1.6001.0306.5515-.0496 1.1036-.236 1.6235-.1864.5199-.4752.9972-.8493 1.4036-.3741.4064-.8258.7337-1.3286.9624-.5027.2288-1.0463.3544-1.5984.3694-.5521.015-1.1017-.0808-1.6162-.2819-.5144-.2011-.9833-.5032-1.3789-.8887-.3957-.3854-.71-.8463-.9244-1.3553-.2144-.5091-.3246-1.0559-.3239-1.6083zM100 37.3354c0-.6591-.1568-1.3087-.4587-1.8945-.3018-.5859-.7394-1.0911-1.2763-1.4733-.5369-.3823-1.1574-.6305-1.8098-.7241-.6524-.0935-1.3177-.0296-1.9403.1865-.6227.216-1.1846.5779-1.6389 1.0553-.4542.4775-.7877 1.0568-.9724 1.6894-.1848.6326-.2155 1.3003-.0896 1.9472s.4047 1.2543.8132 1.7715c-1.3196 2.0288-3.3708 3.8664-5.9989 5.3423-4.0593 2.2759-9.2374 3.5302-14.5845 3.5302-4.6299 0-9.0749-.9165-12.8585-2.6537-2.5564-1.1746-4.6825-2.6568-6.2715-4.3637-1.0534-.6136-3.4887 1.3436-2.6058 2.8353 4.7718 4.963 12.8649 8.0262 21.7358 8.0262 5.9941 0 11.8417-1.428 16.4652-4.0226 3.3883-1.9014 6.018-4.3638 7.6723-7.1337 1.0382-.0795 2.0081-.5477 2.716-1.3112S99.999 38.3766 100 37.3354z" fill="#89D96D"/><path d="M20.4119 45.0876c-3.7676-4.8849-5.9017-11.7779-5.9017-19.2208 0-6.7735 1.7867-13.1661 5.03-18.00158C22.9397 2.79227 27.5393 0 32.4895 0c4.5119 0 8.8135 2.3779 12.1142 6.69381 3.1158 4.07689 5.1431 9.63749 5.7057 15.66029-1.3374-.739-2.7161-1.4004-4.1295-1.981-1.5985-9.5738-7.2341-16.53054-13.6904-16.53054-3.629 0-7.0954 2.18824-9.7602 6.16304-2.8226 4.2092-4.3781 9.8431-4.3781 15.8628 0 6.6173 1.9556 12.8999 5.2754 17.0915.9183-.0914 1.8408.1273 2.6204.6212.7796.494 1.3713 1.2348 1.6807 2.1042.3095.8695.3189 1.8175.0268 2.6929-.2921.8755-.869 1.6279-1.6386 2.1372-.7695.5094-1.6875.7464-2.6075.6732-.92-.0731-1.789-.4522-2.4684-1.0769-.6794-.6246-1.1301-1.4587-1.2801-2.3693-.1501-.9106.009-1.8452.452-2.6548zm29.3938-20.3699c-6.7448-3.8952-14.2705-5.4411-20.499-4.3542-.6577-.6461-1.5127-1.0536-2.4288-1.1576-.9161-.1041-1.8407.1014-2.6266.5836-.7858.4822-1.3878 1.2134-1.71 2.0773-.3223.8638-.3462 1.8107-.0681 2.6897.2781.8791.8422 1.6399 1.6027 2.1612.7605.5214 1.6735.7733 2.5937.7158.9202-.0575 1.7947-.4212 2.4843-1.0333.6896-.612 1.1546-1.4371 1.3211-2.3439 5.2419-.7746 11.6058.6375 17.4086 3.9892 7.0875 4.0912 12.0999 10.4423 13.0801 16.3313 1.2224.51 2.5564.9467 4.0003 1.2861-.3761-7.65-6.246-15.8021-15.1583-20.9452zm1.0184 31.8434c-3.7198.4733-7.9401-.118-12.0903-1.6703-1.1921.9212-2.4543 1.785-3.7804 2.5835 4.4084 2.0241 9.0271 3.0871 13.3112 3.0871 1.0375 0 2.0575-.0621 3.0472-.188 5.1304-.6519 9.196-2.966 11.5341-6.5424-1.3233-.3206-2.627-.7171-3.9047-1.1874-1.7994 2.099-4.6188 3.4728-8.1171 3.9175zM46.7106 41.465c.9229-.01 1.8159-.3286 2.5365-.9053.7207-.5766 1.2275-1.3779 1.4396-2.2761.2121-.8982.1173-1.8416-.2692-2.6797-.3866-.8381-1.0427-1.5225-1.8636-1.9443-.8209-.4217-1.7595-.5564-2.6659-.3825-.9064.1738-1.7285.6462-2.3351 1.3418-.6066.6955-.9628 1.5742-1.0119 2.4958-.049.9217.212 1.8332.7415 2.5891-.7858 1.8902-1.9381 3.782-3.4075 5.5846-2.2727 2.7859-5.261 5.2913-8.6414 7.2436-4.7191 2.727-9.8016 4.19-14.4762 4.1885-.4876 0-.9721-.016-1.4503-.0479-4.7749-.3203-8.4023-2.228-10.21759-5.3693-3.21622-5.5718-.00956-13.9519 7.46839-20.1149-.1839-1.3713-.2956-2.7513-.3347-4.1343l-.212-.2948c-4.87052 3.5015-8.61586 8.0214-10.5491 12.723-2.047983 4.9821-1.941201 9.8622.29963 13.7414 2.47511 4.2857 7.19425 6.8739 13.28717 7.2835.5594.0367 1.1252.0558 1.6958.0558 5.3471 0 11.1085-1.6416 16.4094-4.7032 6.3193-3.6465 11.1707-8.8549 13.5565-14.3948z" fill="#999"/></svg>