<svg width="182" height="182" fill="none" xmlns="http://www.w3.org/2000/svg"><path d="M91 182c50.258 0 91-40.742 91-91 0-50.2579-40.742-91-91-91C40.7421 0 0 40.7421 0 91c0 50.258 40.7421 91 91 91z" fill="#F0F0F0"/><path d="M176.34 122.652c3.658-9.858 5.66-20.521 5.66-31.6521s-2.002-21.7938-5.66-31.652H5.66013C2.00236 69.2061 0 79.8688 0 90.9999s2.00236 21.7941 5.66013 31.6521L91 130.565l85.34-7.913z" fill="#0052B4"/><path d="M91 182c39.127 0 72.482-24.695 85.34-59.348H5.66016C18.5178 157.305 51.8732 182 91 182z" fill="#D80027"/></svg>