<svg width="100" height="75" fill="none" xmlns="http://www.w3.org/2000/svg"><g clip-path="url(#clip0)"><path d="M86.0546 43.0859c-3.4961.0198-6.5235.8594-9.0625 2.1096-.9375-1.8555-1.875-3.4768-2.0311-4.6875-.1758-1.4063-.3906-2.2658-.1758-3.9453.2147-1.6799 1.1913-4.0627 1.1913-4.258-.0198-.1758-.2151-1.0352-2.2266-1.0547-2.0115-.0195-3.75.3906-3.9453.918-.1953.5273-.586 1.7382-.8399 2.9882-.3515 1.836-4.0234 8.3399-6.1132 11.7579-.6836-1.3282-1.2696-2.5-1.387-3.4377-.1755-1.4061-.3906-2.2657-.1756-3.9452.2149-1.6798 1.1915-4.0625 1.1915-4.2578-.0196-.1758-.2149-1.0351-2.2264-1.0547-2.0119-.0195-3.75.3907-3.9453.918-.1953.5274-.4102 1.7774-.8399 2.9883-.4103 1.2109-5.2931 12.0703-6.5627 14.9023-.6445 1.4453-1.2107 2.5977-1.6211 3.3789-.4101.7813-.0195.0586-.0585.1368-.3516.664-.5469 1.0351-.5469 1.0351v.0197c-.2735.4883-.5664.9569-.7033.9569-.0977 0-.293-1.3086.039-3.1053.7227-3.7697 2.4805-9.6484 2.4612-9.8633 0-.0976.3318-1.133-1.1331-1.6601-1.4257-.5274-1.9334.3515-2.0507.3515-.1172 0-.2149.3125-.2149.3125s1.582-6.6209-3.0273-6.6209c-2.8907 0-6.875 3.1446-8.8477 6.0157-1.25.6835-3.9062 2.1287-6.7187 3.6718-1.0743.586-2.1875 1.211-3.2422 1.7774l-.2147-.2348c-5.5859-5.957-15.91794-10.1758-15.48825-18.1836.15625-2.9101 1.17187-10.5859 19.84395-19.8828 15.293-7.61717 27.5391-5.52733 29.6678-.8789 3.0273 6.6406-6.543 18.9844-22.4412 20.7617-6.0547.6836-9.2385-1.6601-10.0391-2.539-.8398-.918-.957-.9571-1.2695-.7813-.5078.2734-.1953 1.0938 0 1.582.4687 1.2305 2.4218 3.418 5.7422 4.5118 2.9099.957 10.0195 1.4843 18.6132-1.836 9.6289-3.7304 17.1485-14.082 14.9414-22.73435-2.246-8.80859-16.8554-11.69921-30.664-6.79687-8.2229 2.92968-17.1291 7.5-23.53538 13.49612C.781136 23.0273-.429802 29.2383.0780107 31.8164 1.85555 41.0156 14.5311 47.0117 19.6093 51.4453c-.2539.1365-.4883.2732-.7032.3906-2.539 1.2498-12.207 6.3086-14.62887 11.66-2.73438 6.0547.42969 10.4103 2.53906 10.9963 6.52341 1.8164 13.20311-1.4453 16.81641-6.8164 3.5936-5.3711 3.1641-12.3438 1.5039-15.5274l-.0588-.1172 1.9922-1.1718c1.2893-.7618 2.5588-1.4649 3.6719-2.0705-.6248 1.6992-1.0742 3.7109-1.3084 6.6406-.2735 3.4377 1.1328 7.8906 2.9883 9.6484.8203.7615 1.7968.7813 2.4023.7813 2.1484 0 3.125-1.7776 4.1992-3.9063 1.3282-2.5976 2.5-5.6055 2.5-5.6055s-1.4648 8.1446 2.5391 8.1446c1.4648 0 2.9297-1.8946 3.5937-2.8711v.0195s.0391-.0586.1172-.1953c.082-.1212.1601-.2449.2344-.3709v-.0391c.5859-1.0156 1.8945-3.3398 3.8477-7.1875 2.5193-4.9609 4.9414-11.1718 4.9414-11.1718s.2343 1.5234.957 4.0234c.4295 1.4846 1.367 3.1055 2.0896 4.6875-.5859.8203-.9375 1.2893-.9375 1.2893l.0196.0195c-.4686.625-.9961 1.2893-1.5428 1.9531-1.9922 2.3828-4.375 5.0979-4.6875 5.8791-.3711.9178-.293 1.6014.4297 2.1485.5273.3906 1.4648.4685 2.4609.3906 1.7969-.1174 3.0469-.5664 3.6719-.8401.9766-.3515 2.0898-.8789 3.1641-1.6601 1.9531-1.4451 3.1445-3.4959 3.0273-6.2303-.0586-1.5039-.5469-2.9883-1.1523-4.3945.1757-.2539.3517-.508.5273-.7813 3.0859-4.5119 5.4688-9.4726 5.4688-9.4726s.2343 1.5234.957 4.0234c.3709 1.2695 1.1133 2.6565 1.7773 4.0236-2.8906 2.3633-4.707 5.0977-5.332 6.8946-1.1523 3.3203-.2539 4.8242 1.4453 5.1758.7615.1562 1.8555-.1953 2.6756-.5469 1.0156-.332 2.2461-.8987 3.3791-1.7383 1.9531-1.4453 3.8281-3.457 3.7305-6.1719-.0586-1.25-.3907-2.4804-.8399-3.6523 2.461-1.0156 5.6444-1.6016 9.6875-1.1133 8.6914 1.0156 10.4102 6.4453 10.0784 8.7109-.3321 2.2659-2.1485 3.5157-2.7542 3.9063-.6054.3711-.8007.508-.7421.7812.0781.4104.3515.3907.8789.3127.7226-.1173 4.5703-1.8554 4.7265-6.0349.2342-5.3719-4.8633-11.2313-13.9062-11.1729zM19.0233 65.6836c-2.8711 3.1445-6.914 4.3359-8.6328 3.3203-1.85546-1.0742-1.133-5.7031 2.4024-9.043 2.1484-2.0312 4.9414-3.9062 6.7773-5.0586.4102-.2539 1.0352-.6248 1.7773-1.0742.1172-.0779.1954-.1172.1954-.1172.1367-.0781.2929-.1758.4492-.2734 1.3086 4.7656.0586 8.9453-2.9688 12.2461zm20.9961-14.2774c-.9961 2.4414-3.1054 8.711-4.375 8.3594-1.0939-.293-1.7578-5.039-.215-9.7265.7812-2.3635 2.4414-5.1758 3.418-6.2698 1.5822-1.7578 3.3007-2.3437 3.7306-1.6211.5078.9377-1.9336 7.7346-2.5586 9.258zm17.3242 8.2813c-.4296.215-.8203.3711-.9961.2541-.1367-.0781.1756-.3711.1756-.3711s2.168-2.3242 3.0274-3.3984c.4883-.6248 1.0742-1.3475 1.6992-2.168v.2344c.0002 2.8123-2.6951 4.6873-3.9061 5.449zm13.3592-3.0469c-.3125-.2344-.2732-.957.7813-3.2226.4103-.8985 1.3476-2.4024 2.9687-3.8282.1953.586.3127 1.1522.293 1.6797-.0193 3.5156-2.5194 4.8242-4.043 5.3711z" fill="#CF649A"/></g><defs><clipPath id="clip0"><path fill="#fff" d="M0 0h100v75H0z"/></clipPath></defs></svg>