<svg width="56" height="56" fill="none" xmlns="http://www.w3.org/2000/svg"><path d="M28 56c15.464 0 28-12.536 28-28S43.464 0 28 0 0 12.536 0 28s12.536 28 28 28z" fill="#34AADF"/><path d="M11.6532 27.7571s13.9999-5.7456 18.8553-7.7688c1.8614-.8092 8.1734-3.3989 8.1734-3.3989s2.9134-1.1328 2.6706 1.6186c-.081 1.133-.7284 5.0982-1.3757 9.3873-.9712 6.0694-2.0232 12.7052-2.0232 12.7052s-.1618 1.8613-1.5375 2.185c-1.3757.3237-3.6417-1.1329-4.0462-1.4567-.3238-.2427-6.0694-3.8844-8.1734-5.6648-.5665-.4855-1.2139-1.4565.0808-2.5895 2.9134-2.6705 6.3931-5.9884 8.4971-8.0925.9712-.9711 1.9422-3.237-2.104-.4856-5.7456 3.9654-11.4103 7.6879-11.4103 7.6879s-1.2948.8092-3.7225.0809c-2.4278-.7283-5.2602-1.6994-5.2602-1.6994s-1.94208-1.2139 1.3758-2.5087z" fill="#fff"/></svg>