<svg width="182" height="182" fill="none" xmlns="http://www.w3.org/2000/svg"><path d="M91 182c50.258 0 91-40.742 91-91 0-50.2579-40.742-91-91-91C40.7421 0 0 40.7421 0 91c0 50.258 40.7421 91 91 91z" fill="#F0F0F0"/><path d="M18.8114 35.5972C11.6633 44.8973 6.27332 55.6165 3.13489 67.2613H50.4755L18.8114 35.5972zM178.865 67.2614c-3.138-11.6445-8.529-22.3636-15.676-31.6637l-31.664 31.6637h47.34zM3.13489 114.74c3.13879 11.644 8.52871 22.363 15.67651 31.663l31.663-31.663H3.13489zM146.403 18.8117c-9.301-7.1482-20.019-12.53814-31.664-15.67693V50.475l31.664-31.6633zM35.5974 163.188c9.3001 7.148 20.0193 12.538 31.6637 15.677v-47.34l-31.6637 31.663zM67.2608 3.13477C55.6163 6.27355 44.8972 11.6635 35.5974 18.8113l31.6634 31.6634V3.13477zM114.739 178.865c11.645-3.139 22.364-8.529 31.664-15.676l-31.664-31.664v47.34zM131.525 114.74l31.664 31.663c7.147-9.3 12.538-20.019 15.676-31.663h-47.34z" fill="#0052B4"/><path d="M181.23 79.1305h-78.36V.770301C98.9842.264469 95.0228 0 91 0c-4.0236 0-7.9842.264469-11.8695.770301V79.1302H.770301C.264469 83.0158 0 86.9772 0 91c0 4.0236.264469 7.9842.770301 11.869H79.1302v78.361c3.8856.506 7.8462.77 11.8698.77 4.0228 0 7.9842-.264 11.869-.77v-78.36h78.361c.506-3.8858.77-7.8464.77-11.87 0-4.0228-.264-7.9842-.77-11.8695z" fill="#D80027"/><path d="M114.739 114.74l40.608 40.607c1.867-1.867 3.649-3.819 5.349-5.842l-34.766-34.766h-11.191v.001zM67.2607 114.74H67.26l-40.6069 40.607c1.8669 1.867 3.8188 3.649 5.8421 5.349l34.7655-34.766v-11.19zM67.2607 67.2615v-.0007L26.6534 26.6531c-1.8676 1.8669-3.6492 3.8188-5.3491 5.8421l34.7659 34.7659h11.1905v.0004zM114.739 67.2615l40.608-40.6081c-1.867-1.8676-3.819-3.6492-5.842-5.3487l-34.766 34.7659v11.1909z" fill="#D80027"/></svg>