<svg width="100" height="96" fill="none" xmlns="http://www.w3.org/2000/svg"><g clip-path="url(#clip0)"><path d="M49.9999 0l44.1917 23.95v47.8999l-44.1917 23.95-44.19167-23.95V23.95L49.9999 0z" fill="#fff"/><path d="M86.3 70.1973L51.4584 89.0779V74.3726l21.7083-11.4401L86.3 70.1973zm2.3834-2.0676V28.6442l-12.75 7.0492v25.379l12.75 7.0573zm-75.125 2.0676L48.4 89.0779V74.3726L26.6917 62.9325l-13.1333 7.2648zm-2.3834-2.0676V28.6442l12.75 7.0492v25.379l-12.75 7.0573zm1.4917-42.0402L48.4 6.72195V20.9402L25.5084 33.003l-.175.0958-12.6667-7.0093zm74.525 0L51.4584 6.72195V20.9402L74.35 33.003l.175.0958 12.6667-7.0093z" fill="#8ED6FB"/><path d="M48.4002 71.0276L26.9836 59.7472V37.3939l21.4166 11.8472v21.7865zm3.0584 0l21.4166-11.2804V37.3939L51.4586 49.2411v21.7865zm-23.025-36.2203l21.5-11.3284 21.5 11.3284-21.5 11.8951-21.5-11.8951z" fill="#1C78C0"/></g><defs><clipPath id="clip0"><path fill="#fff" d="M0 0h100v95.7999H0z"/></clipPath></defs></svg>